<?xml version="1.0" encoding="UTF-8" standalone="no"?>
<!-- Created with Inkscape (http://www.inkscape.org/) -->

<svg
   width="229.62297mm"
   height="84.585281mm"
   viewBox="0 0 229.62297 84.585281"
   version="1.1"
   id="svg1"
   xml:space="preserve"
   xmlns="http://www.w3.org/2000/svg"
   xmlns:svg="http://www.w3.org/2000/svg"><defs
     id="defs1" /><g
     id="layer1"
     transform="translate(9.8867777,-106.20736)"><g
       id="g2"
       transform="matrix(0.26458333,0,0,0.26458333,-91.11386,13.308428)"><path
         style="fill:#708ba0"
         d="m 328.8125,645.31689 c 0.72187,-0.28887 1.58438,-0.25335 1.91667,0.0789 0.33229,0.33229 -0.25834,0.56864 -1.3125,0.52522 -1.16495,-0.048 -1.4019,-0.28494 -0.60417,-0.60416 z M 508,621.62244 c 0,-0.20765 0.7875,-0.99515 1.75,-1.75 1.58606,-1.24387 1.62143,-1.2085 0.37756,0.37756 C 508.82119,621.91575 508,622.44548 508,621.62244 Z m -30.25,-28.28472 c 0.6875,-0.27741 1.8125,-0.27741 2.5,0 0.6875,0.27741 0.125,0.50439 -1.25,0.50439 -1.375,0 -1.9375,-0.22698 -1.25,-0.50439 z m 298,-27.04345 c 1.2375,-0.23836 3.2625,-0.23836 4.5,0 1.2375,0.23835 0.225,0.43337 -2.25,0.43337 -2.475,0 -3.4875,-0.19502 -2.25,-0.43337 z M 1081.4571,521 c 0,-22.825 0.1313,-32.1625 0.2918,-20.75 0.1604,11.4125 0.1604,30.0875 0,41.5 -0.1605,11.4125 -0.2918,2.075 -0.2918,-20.75 z m -335.58466,35.25 c -1.24387,-1.58606 -1.2085,-1.62143 0.37756,-0.37756 0.9625,0.75485 1.75,1.54235 1.75,1.75 0,0.82304 -0.82119,0.29331 -2.12756,-1.37244 z M 810.5,555 c 0.99549,-1.1 2.03498,-2 2.30998,-2 0.275,0 -0.31449,0.9 -1.30998,2 -0.99549,1.1 -2.03498,2 -2.30998,2 -0.275,0 0.31449,-0.9 1.30998,-2 z M 665.25,542.2545 c 5.3625,-0.17981 14.1375,-0.17981 19.5,0 5.3625,0.17981 0.975,0.32692 -9.75,0.32692 -10.725,0 -15.1125,-0.14711 -9.75,-0.32692 z m 96.62244,-3.0045 c -1.24387,-1.58606 -1.2085,-1.62143 0.37756,-0.37756 0.9625,0.75485 1.75,1.54235 1.75,1.75 0,0.82304 -0.82119,0.29331 -2.12756,-1.37244 z m -4.87316,-46.45085 c -0.27461,-19.63547 -0.15585,-35.35704 0.26389,-34.93683 0.41975,0.42021 0.64442,16.4856 0.49928,35.70085 L 757.49855,528.5 Z m 286.07962,22.61752 c 0.048,-1.16495 0.285,-1.4019 0.6042,-0.60417 0.2889,0.72187 0.2534,1.58438 -0.079,1.91667 -0.3323,0.33229 -0.5687,-0.25834 -0.5253,-1.3125 z m 0,-9 c 0.048,-1.16495 0.285,-1.4019 0.6042,-0.60417 0.2889,0.72187 0.2534,1.58438 -0.079,1.91667 -0.3323,0.33229 -0.5687,-0.25834 -0.5253,-1.3125 z M 675.25,457.31067 c 0.9625,-0.25152 2.5375,-0.25152 3.5,0 0.9625,0.25153 0.175,0.45733 -1.75,0.45733 -1.925,0 -2.7125,-0.2058 -1.75,-0.45733 z m 8.01375,-0.0283 c 1.52006,-0.22986 3.77006,-0.22371 5,0.0136 1.22994,0.23736 -0.0137,0.42542 -2.76375,0.41792 -2.75,-0.008 -3.75631,-0.20172 -2.23625,-0.43157 z"
         id="path8" /><path
         style="fill:#ee4d4f"
         d="m 524,530.62244 c 0,-0.20765 0.7875,-0.99515 1.75,-1.75 1.58606,-1.24387 1.62143,-1.2085 0.37756,0.37756 C 524.82119,530.91575 524,531.44548 524,530.62244 Z M 384.87244,528.25 c -1.24387,-1.58606 -1.2085,-1.62143 0.37756,-0.37756 1.66575,1.30637 2.19548,2.12756 1.37244,2.12756 -0.20765,0 -0.99515,-0.7875 -1.75,-1.75 z M 461.75,522.29427 c 1.2375,-0.23836 3.2625,-0.23836 4.5,0 1.2375,0.23835 0.225,0.43337 -2.25,0.43337 -2.475,0 -3.4875,-0.19502 -2.25,-0.43337 z M 375.40499,519.75 373.5,517.5 l 2.25,1.90499 c 2.11444,1.79022 2.70524,2.59501 1.90499,2.59501 -0.18976,0 -1.20226,-1.0125 -2.25,-2.25 z M 536,519.5 c 1.29175,-1.375 2.57363,-2.5 2.84863,-2.5 0.275,0 -0.55688,1.125 -1.84863,2.5 -1.29175,1.375 -2.57363,2.5 -2.84863,2.5 -0.275,0 0.55688,-1.125 1.84863,-2.5 z M 366.87244,509.25 c -1.24387,-1.58606 -1.2085,-1.62143 0.37756,-0.37756 1.66575,1.30637 2.19548,2.12756 1.37244,2.12756 -0.20765,0 -0.99515,-0.7875 -1.75,-1.75 z M 551,504.5 c 1.29175,-1.375 2.57363,-2.5 2.84863,-2.5 0.275,0 -0.55688,1.125 -1.84863,2.5 -1.29175,1.375 -2.57363,2.5 -2.84863,2.5 -0.275,0 0.55688,-1.125 1.84863,-2.5 z M 355.40499,499.75 353.5,497.5 l 2.25,1.90499 c 2.11444,1.79022 2.70524,2.59501 1.90499,2.59501 -0.18976,0 -1.20226,-1.0125 -2.25,-2.25 z m 45.67396,-16.33333 c 0.048,-1.16495 0.28494,-1.4019 0.60416,-0.60417 0.28887,0.72187 0.25335,1.58438 -0.0789,1.91667 -0.33229,0.33229 -0.56864,-0.25834 -0.52522,-1.3125 z m 2,-1 c 0.048,-1.16495 0.28494,-1.4019 0.60416,-0.60417 0.28887,0.72187 0.25335,1.58438 -0.0789,1.91667 -0.33229,0.33229 -0.56864,-0.25834 -0.52522,-1.3125 z M 412.15789,467 c 0,-1.375 0.22698,-1.9375 0.50439,-1.25 0.27741,0.6875 0.27741,1.8125 0,2.5 -0.27741,0.6875 -0.50439,0.125 -0.50439,-1.25 z M 412,463.07332 c 0,-0.50967 -0.7875,-1.13247 -1.75,-1.38399 -1.31691,-0.34415 -1.19317,-0.48604 0.5,-0.57333 1.38489,-0.0714 2.25,0.46074 2.25,1.384 0,0.825 -0.225,1.5 -0.5,1.5 -0.275,0 -0.5,-0.417 -0.5,-0.92668 z m 34.25,-1.81789 c 4.8125,-0.18331 12.6875,-0.18331 17.5,0 4.8125,0.18332 0.875,0.3333 -8.75,0.3333 -9.625,0 -13.5625,-0.14998 -8.75,-0.3333 z m 27.5,0.0823 c 0.6875,-0.27741 1.8125,-0.27741 2.5,0 0.6875,0.27741 0.125,0.50439 -1.25,0.50439 -1.375,0 -1.9375,-0.22698 -1.25,-0.50439 z M 480,447.69144 c 0,-1.44281 -1.97042,-1.67844 -16.25,-1.94323 l -16.25,-0.30134 16.28138,-0.22344 c 13.8898,-0.19061 16.36837,0.003 16.87354,1.3197 0.32569,0.84872 0.31156,1.82372 -0.0314,2.16666 C 480.28059,449.05274 480,448.59448 480,447.69144 Z m -67.75,-2.38077 c 0.9625,-0.25152 2.5375,-0.25152 3.5,0 0.9625,0.25153 0.175,0.45733 -1.75,0.45733 -1.925,0 -2.7125,-0.2058 -1.75,-0.45733 z M 441,445.17319 c 0,-0.45474 1.35,-0.62867 3,-0.3865 1.65,0.24217 3,0.61423 3,0.82681 0,0.21257 -1.35,0.3865 -3,0.3865 -1.65,0 -3,-0.37206 -3,-0.82681 z m -31.75,-1.86252 c 0.9625,-0.25152 2.5375,-0.25152 3.5,0 0.9625,0.25153 0.175,0.45733 -1.75,0.45733 -1.925,0 -2.7125,-0.2058 -1.75,-0.45733 z m 47,-0.054 c 4.2625,-0.18745 11.2375,-0.18745 15.5,0 4.2625,0.18745 0.775,0.34082 -7.75,0.34082 -8.525,0 -12.0125,-0.15337 -7.75,-0.34082 z m -130.17105,-6.84002 c 0.048,-1.16495 0.28494,-1.4019 0.60416,-0.60417 0.28887,0.72187 0.25335,1.58438 -0.0789,1.91667 -0.33229,0.33229 -0.56864,-0.25834 -0.52522,-1.3125 z m -2,-2 c 0.048,-1.16495 0.28494,-1.4019 0.60416,-0.60417 0.28887,0.72187 0.25335,1.58438 -0.0789,1.91667 -0.33229,0.33229 -0.56864,-0.25834 -0.52522,-1.3125 z m 261,-1 c 0.048,-1.16495 0.28494,-1.4019 0.60416,-0.60417 0.28887,0.72187 0.25335,1.58438 -0.0789,1.91667 -0.33229,0.33229 -0.56864,-0.25834 -0.52522,-1.3125 z M 587.35496,426.5 c -0.003,-4.95 0.16605,-7.10108 0.37577,-4.78017 0.20972,2.3209 0.21222,6.3709 0.006,9 C 587.5296,433.34892 587.358,431.45 587.35496,426.5 Z M 429.5,423 c 0.99549,-1.1 2.03498,-2 2.30998,-2 0.275,0 -0.31449,0.9 -1.30998,2 -0.99549,1.1 -2.03498,2 -2.30998,2 -0.275,0 0.31449,-0.9 1.30998,-2 z m 155.65789,-3 c 0,-1.375 0.22698,-1.9375 0.50439,-1.25 0.27741,0.6875 0.27741,1.8125 0,2.5 -0.27741,0.6875 -0.50439,0.125 -0.50439,-1.25 z m -261,-2 c 0,-1.375 0.22698,-1.9375 0.50439,-1.25 0.27741,0.6875 0.27741,1.8125 0,2.5 -0.27741,0.6875 -0.50439,0.125 -0.50439,-1.25 z m 169.57544,-1.12409 c 0.67834,-0.68342 1.48524,-0.99067 1.79313,-0.68278 0.30789,0.30789 -0.24711,0.86705 -1.23333,1.24258 -1.4252,0.54268 -1.54006,0.42782 -0.5598,-0.5598 z M 447.97111,376.25 441.5,369.5 l 6.75,6.47111 c 3.7125,3.55911 6.75,6.59661 6.75,6.75 0,0.73602 -1.01824,-0.20142 -7.02889,-6.47111 z M 345,370.5 c 1.86578,-1.925 3.61733,-3.5 3.89233,-3.5 0.275,0 -1.02655,1.575 -2.89233,3.5 -1.86578,1.925 -3.61733,3.5 -3.89233,3.5 -0.275,0 1.02655,-1.575 2.89233,-3.5 z m 123,3.12244 c 0,-0.20765 0.7875,-0.99515 1.75,-1.75 1.58606,-1.24387 1.62143,-1.2085 0.37756,0.37756 C 468.82119,373.91575 468,374.44548 468,373.62244 Z m 2,-4 c 0,-0.20765 0.7875,-0.99515 1.75,-1.75 1.58606,-1.24387 1.62143,-1.2085 0.37756,0.37756 C 470.82119,369.91575 470,370.44548 470,369.62244 Z M 389.75,353.2766 c 1.7875,-0.22182 4.7125,-0.22182 6.5,0 1.7875,0.22183 0.325,0.40333 -3.25,0.40333 -3.575,0 -5.0375,-0.1815 -3.25,-0.40333 z m 124.5,-0.005 c 2.0625,-0.21574 5.4375,-0.21574 7.5,0 2.0625,0.21575 0.375,0.39226 -3.75,0.39226 -4.125,0 -5.8125,-0.17651 -3.75,-0.39226 z m -122.5,-1.97726 c 1.2375,-0.23836 3.2625,-0.23836 4.5,0 1.2375,0.23835 0.225,0.43337 -2.25,0.43337 -2.475,0 -3.4875,-0.19502 -2.25,-0.43337 z m 123.51375,-0.0118 c 1.52006,-0.22986 3.77006,-0.22371 5,0.0136 1.22994,0.23736 -0.0137,0.42542 -2.76375,0.41792 -2.75,-0.008 -3.75631,-0.20172 -2.23625,-0.43157 z"
         id="path7" /><path
         style="fill:#ed3538"
         d="M 450.30859,574.56338 C 423.62741,562.14083 366.4417,514.92008 347.89985,490 c -17.00134,-22.84964 -23.30343,-40.38408 -23.18208,-64.5 0.1159,-23.03126 6.50622,-39.68845 20.79126,-54.19506 14.01942,-14.23687 29.41616,-19.87528 51.99097,-19.03951 9.87127,0.36545 13.29802,0.92605 19.31717,3.16018 11.19397,4.15488 18.79354,9.11095 28.7704,18.76265 5.00973,4.84646 9.46445,8.81174 9.89939,8.81174 0.43494,0 4.29568,-3.34855 8.57943,-7.44122 13.32827,-12.73375 22.38852,-18.22241 35.70005,-21.62692 9.18429,-2.34895 24.66901,-2.5464 34.60521,-0.44127 18.98042,4.02128 35.25584,16.81522 44.02276,34.60584 7.24847,14.70926 8.94462,23.12273 8.33283,41.33379 -0.59569,17.73172 -2.12857,23.9134 -9.759,39.35515 -10.92035,22.0996 -33.5501,46.76981 -68.83168,75.03805 -18.78089,15.04758 -46.54399,33.18873 -50.75829,33.16681 -1.03305,-0.005 -4.2144,-1.09745 -7.06968,-2.42685 z m 28.29186,-54.51422 C 484.06438,518.12874 497,510.20087 497,508.7726 c 0,-0.44178 -2.33308,-4.05884 -5.18463,-8.03791 -2.85154,-3.97908 -5.25924,-7.35489 -5.35044,-7.5018 -0.0912,-0.1469 -2.76169,1.29606 -5.93444,3.20659 -12.98737,7.82058 -27.43932,5.25392 -36.37909,-6.46091 l -3.41767,-4.47857 14.51811,-0.27607 14.51811,-0.27608 1.61503,-6.42944 C 472.27324,474.98222 473,471.84395 473,471.54448 473,471.24502 464.9,471 455,471 h -18 v -5.47929 -5.4793 l 20.11342,-0.2707 20.11343,-0.27071 1.87619,-6 c 1.0319,-3.3 1.66998,-6.5625 1.41796,-7.25 C 480.17635,445.30984 475.34544,445 461.03138,445 450.56412,445 442,444.65253 442,444.22784 c 0,-1.76044 6.44619,-8.40502 10.40459,-10.72479 8.27197,-4.8477 18.90233,-4.23099 28.14894,1.63303 2.57257,1.63148 4.77689,2.83078 4.89848,2.66512 0.1216,-0.16566 2.58533,-4.25606 5.47496,-9.08978 4.0843,-6.83213 5.00185,-9.09227 4.12172,-10.15275 -0.62269,-0.7503 -0.77588,-1.55919 -0.34043,-1.79753 0.43546,-0.23834 0.25391,-0.30569 -0.40344,-0.14967 -0.65735,0.15603 -3.80735,-1.01812 -7,-2.60923 -7.59122,-3.78319 -12.99345,-4.948 -23.08637,-4.97779 -19.23917,-0.0568 -35.65682,10.42821 -44.0259,28.11681 -3.61245,7.63515 -3.77212,7.80504 -7.36076,7.8316 -5.71689,0.0423 -6.63786,0.80148 -7.91945,6.52825 C 403.27937,458.79798 403.92377,460 409.46862,460 H 414 v 5.4425 5.4425 l -4.23176,0.3075 -4.23177,0.3075 -1.24634,5.5 c -0.68549,3.025 -1.04532,6.0625 -0.79962,6.75 0.29234,0.81802 2.61748,1.25426 6.72811,1.26232 l 6.28138,0.0123 2.81624,6.95731 c 3.63515,8.98033 13.86108,20.23493 22.63403,24.91086 11.59522,6.18019 24.80905,7.31817 36.65018,3.15635 z M 369,510.62244 c 0,-0.20765 -0.7875,-0.99515 -1.75,-1.75 -1.58606,-1.24387 -1.62143,-1.2085 -0.37756,0.37756 1.30637,1.66575 2.12756,2.19548 2.12756,1.37244 z m 32.68311,-27.80994 c -0.31922,-0.79773 -0.55618,-0.56078 -0.60416,0.60417 -0.0434,1.05416 0.19293,1.64479 0.52522,1.3125 0.33229,-0.33229 0.36781,-1.1948 0.0789,-1.91667 z M 412.66228,465.75 c -0.27741,-0.6875 -0.50439,-0.125 -0.50439,1.25 0,1.375 0.22698,1.9375 0.50439,1.25 0.27741,-0.6875 0.27741,-1.8125 0,-2.5 z M 413,462.5 c 0,-0.92326 -0.86511,-1.4554 -2.25,-1.384 -1.69317,0.0873 -1.81691,0.22918 -0.5,0.57333 0.9625,0.25152 1.75,0.87432 1.75,1.38399 0,0.50968 0.225,0.92668 0.5,0.92668 0.275,0 0.5,-0.675 0.5,-1.5 z m 50.75,-1.24457 c -4.8125,-0.18331 -12.6875,-0.18331 -17.5,0 -4.8125,0.18332 -0.875,0.3333 8.75,0.3333 9.625,0 13.5625,-0.14998 8.75,-0.3333 z m 12.5,0.0823 c -0.6875,-0.27741 -1.8125,-0.27741 -2.5,0 -0.6875,0.27741 -0.125,0.50439 1.25,0.50439 1.375,0 1.9375,-0.22698 1.25,-0.50439 z m -63.5,-18.02705 c -0.9625,-0.25152 -2.5375,-0.25152 -3.5,0 -0.9625,0.25153 -0.175,0.45733 1.75,0.45733 1.925,0 2.7125,-0.2058 1.75,-0.45733 z m 59,-0.054 c -4.2625,-0.18745 -11.2375,-0.18745 -15.5,0 -4.2625,0.18745 -0.775,0.34082 7.75,0.34082 8.525,0 12.0125,-0.15337 7.75,-0.34082 z M 326.68311,435.8125 c -0.31922,-0.79773 -0.55618,-0.56078 -0.60416,0.60417 -0.0434,1.05416 0.19293,1.64479 0.52522,1.3125 0.33229,-0.33229 0.36781,-1.1948 0.0789,-1.91667 z m 259,-3 c -0.31922,-0.79773 -0.55618,-0.56078 -0.60416,0.60417 -0.0434,1.05416 0.19293,1.64479 0.52522,1.3125 0.33229,-0.33229 0.36781,-1.1948 0.0789,-1.91667 z m -0.0208,-14.0625 c -0.27741,-0.6875 -0.50439,-0.125 -0.50439,1.25 0,1.375 0.22698,1.9375 0.50439,1.25 0.27741,-0.6875 0.27741,-1.8125 0,-2.5 z m -115.53472,-46.5 c 1.24387,-1.58606 1.2085,-1.62143 -0.37756,-0.37756 -1.66575,1.30637 -2.19548,2.12756 -1.37244,2.12756 0.20765,0 0.99515,-0.7875 1.75,-1.75 z M 396.25,353.2766 c -1.7875,-0.22182 -4.7125,-0.22182 -6.5,0 -1.7875,0.22183 -0.325,0.40333 3.25,0.40333 3.575,0 5.0375,-0.1815 3.25,-0.40333 z m 125.5,-0.005 c -2.0625,-0.21574 -5.4375,-0.21574 -7.5,0 -2.0625,0.21575 -0.375,0.39226 3.75,0.39226 4.125,0 5.8125,-0.17651 3.75,-0.39226 z"
         id="path6" /><path
         style="fill:#57718b"
         d="m 451.26903,670.30701 c 0.97297,-0.25354 2.32297,-0.23687 3,0.0371 0.67703,0.27393 -0.11903,0.48137 -1.76903,0.46099 -1.65,-0.0204 -2.20394,-0.2445 -1.23097,-0.49804 z m 2.54347,-48.99012 c 0.72187,-0.28887 1.58438,-0.25335 1.91667,0.0789 0.33229,0.33229 -0.25834,0.56864 -1.3125,0.52522 -1.16495,-0.048 -1.4019,-0.28494 -0.60417,-0.60416 z M 473.75,593.33772 c 0.6875,-0.27741 1.8125,-0.27741 2.5,0 0.6875,0.27741 0.125,0.50439 -1.25,0.50439 -1.375,0 -1.9375,-0.22698 -1.25,-0.50439 z M 864.40709,548 c 0,-9.075 0.1516,-12.7875 0.3369,-8.25 0.18529,4.5375 0.18529,11.9625 0,16.5 -0.1853,4.5375 -0.3369,0.825 -0.3369,-8.25 z m 95.84509,-37.5 c 0.0111,-2.2 0.21589,-2.98225 0.45508,-1.73834 0.23919,1.24391 0.23011,3.04391 -0.0202,4 -0.25029,0.95609 -0.446,-0.0617 -0.4349,-2.26166 z m 82.97982,0.5 c 0,-1.925 0.2058,-2.7125 0.4573,-1.75 0.2516,0.9625 0.2516,2.5375 0,3.5 -0.2515,0.9625 -0.4573,0.175 -0.4573,-1.75 z M 864.42476,481 c 0,-11.825 0.14466,-16.6625 0.32145,-10.75 0.1768,5.9125 0.1768,15.5875 0,21.5 -0.17679,5.9125 -0.32145,1.075 -0.32145,-10.75 z m 184.93574,-12 c 0,-5.225 0.1685,-7.3625 0.3745,-4.75 0.206,2.6125 0.206,6.8875 0,9.5 -0.206,2.6125 -0.3745,0.475 -0.3745,-4.75 z m -21.4881,2.25 c -1.2438,-1.58606 -1.2085,-1.62143 0.3776,-0.37756 1.6657,1.30637 2.1955,2.12756 1.3724,2.12756 -0.2076,0 -0.9951,-0.7875 -1.75,-1.75 z M 1134.1579,461 c 0,-1.375 0.227,-1.9375 0.5044,-1.25 0.2774,0.6875 0.2774,1.8125 0,2.5 -0.2774,0.6875 -0.5044,0.125 -0.5044,-1.25 z M 902,459.62244 c 0,-0.20765 0.7875,-0.99515 1.75,-1.75 1.58606,-1.24387 1.62143,-1.2085 0.37756,0.37756 C 902.82119,459.91575 902,460.44548 902,459.62244 Z m -236.23209,-2.34717 c 1.79735,-0.22256 4.49735,-0.21797 6,0.0102 1.50265,0.22818 0.0321,0.41027 -3.26791,0.40466 -3.3,-0.006 -4.52944,-0.1923 -2.73209,-0.41486 z"
         id="path5" /><path
         style="fill:#01294c"
         d="m 449.54407,668.92882 c -4.92576,-0.43577 -9.38278,-0.5285 -9.9045,-0.20606 -0.52172,0.32244 -0.67756,0.14773 -0.34631,-0.38824 0.75912,-1.22829 -12.88758,-5.70328 -14.4492,-4.73814 -0.68653,0.4243 -0.88238,0.27464 -0.48405,-0.36988 0.80995,-1.31052 -2.87021,-2.64725 -4.50557,-1.63654 -0.68577,0.42383 -0.89522,0.28504 -0.51014,-0.33804 0.77009,-1.24602 -5.08034,-3.53309 -6.61368,-2.58544 -0.5718,0.3534 -0.74803,0.1707 -0.39161,-0.40599 0.78938,-1.27724 -7.0121,-4.58057 -8.55944,-3.62426 -0.59872,0.37003 -0.81005,0.22211 -0.46962,-0.32872 0.77788,-1.25864 -11.00884,-6.61164 -12.51223,-5.68249 -0.71933,0.44457 -0.82021,0.22038 -0.28818,-0.64045 0.61348,-0.99264 0.34666,-1.14337 -1.06501,-0.60166 -1.03596,0.39754 -1.53929,0.37851 -1.1185,-0.0423 1.02183,-1.02184 -13.27493,-7.57423 -15.0446,-6.89514 -0.86227,0.33088 -1.11787,0.0989 -0.677,-0.61448 0.48178,-0.77953 0.0182,-0.9656 -1.44944,-0.5818 -1.36848,0.35786 -1.91999,0.17956 -1.50775,-0.48747 0.41709,-0.67485 -0.28826,-0.87237 -1.96835,-0.5512 -1.4401,0.2753 -2.38043,0.11554 -2.08961,-0.35501 C 365.88009,637.38499 362.64353,637 358.39691,637 c -8.1083,0 -18.76086,2.6021 -17.69733,4.32292 0.33519,0.54236 0.10972,0.67725 -0.50105,0.29978 -0.61077,-0.37748 -2.76026,0.003 -4.77664,0.84549 -4.89182,2.04393 -7.0292,1.93054 -8.70488,-0.46183 -0.76802,-1.0965 -1.71732,-1.67272 -2.10956,-1.28048 -0.39223,0.39224 -0.3879,-0.13445 0.01,-1.17041 0.54171,-1.41167 0.39098,-1.67849 -0.60166,-1.06501 -0.82901,0.51236 -1.08409,0.42966 -0.68191,-0.22108 0.94765,-1.53334 -1.33942,-7.38377 -2.58544,-6.61368 -0.594,0.36711 -0.7648,0.18037 -0.38987,-0.42628 0.79072,-1.27941 -2.66557,-10.58873 -3.5886,-9.6657 -0.34876,0.34876 -0.36871,-0.38077 -0.0443,-1.62118 0.44296,-1.69389 0.26317,-2.05344 -0.72226,-1.4444 -0.87147,0.53859 -1.07123,0.42125 -0.59491,-0.34946 0.83934,-1.35808 -1.42782,-8.25454 -2.49649,-7.59406 -0.39881,0.24648 -0.47118,-0.52285 -0.16084,-1.70961 0.3838,-1.46765 0.19773,-1.93122 -0.5818,-1.44944 -0.70208,0.4339 -0.94821,0.1927 -0.63535,-0.62262 0.2809,-0.73201 -0.41234,-4.01387 -1.54054,-7.29303 l -2.05126,-5.96211 2.53423,-1.84606 c 1.39383,-1.01534 2.27347,-2.26799 1.95476,-2.78368 -0.31871,-0.51569 -0.20853,-0.83087 0.24485,-0.70039 1.64559,0.47357 5.37445,-2.29831 4.69201,-3.48785 -0.37858,-0.65991 -0.33202,-0.87816 0.10348,-0.48501 1.17082,1.05697 4.69897,-1.13053 3.90234,-2.4195 -0.39734,-0.6429 -0.22716,-0.82291 0.40727,-0.43081 1.306,0.80715 10.46981,-4.7806 9.4737,-5.77671 -0.38143,-0.38143 0.1541,-0.36825 1.19006,0.0293 1.30195,0.4996 1.66248,0.36507 1.16758,-0.4357 -0.48251,-0.78071 -0.15642,-0.94376 1,-0.5 1.15641,0.44376 1.4825,0.28072 1,-0.5 -0.48251,-0.78071 -0.15642,-0.94376 1,-0.5 1.15641,0.44376 1.4825,0.28072 1,-0.5 -0.48251,-0.78071 -0.15642,-0.94376 1,-0.5 1.07985,0.41438 1.4738,0.26664 1.0627,-0.39855 -0.35931,-0.58137 -0.0956,-1.03695 0.58595,-1.0124 3.42145,0.12322 4.80626,-0.35299 4.14375,-1.42495 -0.43746,-0.70782 -0.2748,-0.88336 0.42041,-0.45369 1.34384,0.83053 9.30702,-1.36931 8.6726,-2.39582 -0.24035,-0.38889 0.74127,-0.48183 2.18137,-0.20653 1.54163,0.2947 2.37335,0.10409 2.02255,-0.46352 -0.35379,-0.57243 0.65908,-0.77986 2.49342,-0.51064 1.69908,0.24937 2.84329,0.0554 2.54268,-0.43094 C 362.43169,564.88947 367.83205,564.5 375,564.5 c 7.04496,0 12.63093,0.28816 12.41326,0.64035 -0.58319,0.94362 6.42704,2.07639 7.75826,1.25365 0.74743,-0.46194 0.85943,-0.2531 0.32662,0.60902 -0.6041,0.97745 -0.26064,1.16813 1.34687,0.74776 1.18676,-0.31034 1.93266,-0.20006 1.65756,0.24507 -0.65869,1.06578 5.42447,3.16728 6.76681,2.33767 0.65074,-0.40218 0.73344,-0.1471 0.22108,0.68191 -0.59931,0.96971 -0.35895,1.14808 0.89743,0.66596 1.15642,-0.44376 1.48251,-0.28071 1,0.5 -0.4825,0.78072 -0.15641,0.94376 1,0.5 0.94379,-0.36216 1.48141,-0.27893 1.1947,0.18497 -0.71059,1.14976 27.27753,14.33812 28.64049,13.49577 0.69807,-0.43143 0.79357,-0.19809 0.26738,0.6533 -0.59931,0.96971 -0.35895,1.14808 0.89743,0.66596 0.94379,-0.36216 1.48235,-0.28045 1.19679,0.18159 -0.69146,1.11881 7.1411,3.42453 8.5904,2.52882 0.66065,-0.40831 0.85956,-0.25686 0.47655,0.36285 -1.02537,1.65909 12.33152,3.58084 25.49486,3.66812 6.57135,0.0436 11.40894,0.46724 11.10137,0.97222 -0.29981,0.49224 0.63315,0.66975 2.07325,0.39446 1.622,-0.31007 2.38011,-0.11503 1.99226,0.51253 -0.38375,0.62091 0.20914,0.79464 1.53164,0.4488 1.18676,-0.31034 1.93471,-0.20338 1.66211,0.23769 -0.67602,1.09383 2.39316,2.17834 3.83312,1.35445 0.63787,-0.36496 0.81596,-0.28512 0.39576,0.17742 -0.4202,0.46255 0.4573,2.11576 1.95,3.6738 3.62459,3.78325 3.75008,9.21402 0.27351,11.8364 -6.76836,5.10538 -26.64127,7.67704 -46.14777,5.97176 -7.52854,-0.65816 -14.27854,-0.85577 -15,-0.43915 -0.72266,0.41732 -0.95777,0.36896 -0.52353,-0.1077 0.89452,-0.9819 -22.84766,-5.67611 -25.53959,-5.04959 -0.96326,0.22419 -1.5297,0.0489 -1.25875,-0.38947 0.27095,-0.4384 -1.1777,-1.11045 -3.21921,-1.49344 -3.0453,-0.5713 -4.00815,-0.33041 -5.36193,1.34143 -3.10033,3.82875 0.59324,11.02213 5.05977,9.85411 1.11884,-0.29259 1.8207,-0.18643 1.55968,0.23591 -0.63592,1.02895 15.08817,4.37919 17.54184,3.73754 1.06301,-0.27798 1.71211,-0.14843 1.44244,0.2879 -0.87549,1.41657 28.57328,4.94389 41.69669,4.99436 7.97443,0.0307 21.95223,-1.90407 21.30636,-2.94911 -0.25024,-0.4049 0.72328,-0.51094 2.16338,-0.23564 1.68009,0.32117 2.38544,0.12365 1.96835,-0.5512 -0.41224,-0.66703 0.13927,-0.84533 1.50775,-0.48747 1.60751,0.42037 1.95097,0.22969 1.34687,-0.74776 -0.53434,-0.86458 -0.42092,-1.07103 0.33256,-0.60536 1.45471,0.89906 8.33906,-2.30794 7.58243,-3.53219 -0.31103,-0.50326 -0.19456,-0.85058 0.25882,-0.77183 2.16558,0.3762 3.24721,-0.37871 5.56855,-3.88649 1.38049,-2.08607 2.78876,-5.79857 3.12948,-8.25 0.44268,-3.18503 0.34765,-3.88633 -0.33295,-2.45715 -0.68401,1.43633 -0.78105,0.75904 -0.3443,-2.40314 0.48005,-3.47575 0.3329,-4.23303 -0.69866,-3.59549 -0.82447,0.50954 -1.06403,0.41483 -0.64905,-0.25662 0.93257,-1.50894 -0.34791,-4.3633 -1.60803,-3.5845 -0.63237,0.39083 -0.75056,0.1647 -0.29726,-0.56875 0.41706,-0.67482 0.0365,-2.00873 -0.85388,-2.99252 -1.49788,-1.65514 -1.37356,-1.90037 1.84087,-3.63145 1.89597,-1.02105 3.18022,-2.28848 2.85388,-2.8165 -0.32633,-0.52803 -0.0746,-0.63945 0.55942,-0.24761 1.42117,0.87834 5.4298,-1.76691 4.3999,-2.90344 -0.409,-0.45135 -0.18193,-0.49741 0.50461,-0.10237 1.44566,0.83185 5.59182,-1.72421 4.52587,-2.79016 -0.39224,-0.39223 0.13445,-0.3879 1.17041,0.01 1.41167,0.54171 1.67849,0.39098 1.06501,-0.60166 -0.54419,-0.88052 -0.43218,-1.08565 0.3342,-0.61201 1.42117,0.87834 5.4298,-1.76691 4.3999,-2.90344 -0.409,-0.45135 -0.20819,-0.51365 0.44624,-0.13844 1.48566,0.85176 7.57689,-2.73318 6.55653,-3.85879 -0.41053,-0.45287 -0.18478,-0.50023 0.50167,-0.10525 1.46341,0.84206 9.60048,-3.7156 8.53535,-4.78074 -0.39736,-0.39736 0.12514,-0.39721 1.1611,3.3e-4 1.30195,0.4996 1.66248,0.36507 1.16758,-0.4357 -0.48251,-0.78071 -0.15642,-0.94376 1,-0.5 1.25638,0.48212 1.49674,0.30375 0.89743,-0.66596 -0.53892,-0.87199 -0.43172,-1.08537 0.31379,-0.62462 0.62279,0.38491 3.46579,0.007 6.31777,-0.84007 5.95374,-1.76807 11.82439,-0.78183 14.59289,2.45155 0.89252,1.04239 2.06203,1.62378 2.5989,1.29197 0.53687,-0.3318 0.74387,-0.19625 0.46,0.30123 -0.28387,0.49748 -0.22054,3.46163 0.14075,6.58699 0.36129,3.12537 0.29902,5.46131 -0.13838,5.19099 -0.74483,-0.46033 -1.21205,1.09067 -0.8889,2.95086 0.0788,0.45338 -0.2491,0.58188 -0.72856,0.28556 -1.05094,-0.64952 -6.42384,4.74004 -5.6918,5.70944 0.2827,0.37437 0.23346,0.47513 -0.10942,0.22392 -0.98582,-0.72227 -7.42082,4.57616 -6.79251,5.59278 0.31053,0.50244 0.19364,0.80677 -0.25974,0.67629 -1.5738,-0.45291 -5.377,2.29343 -4.69783,3.39236 0.37538,0.60739 0.23632,0.82857 -0.30902,0.49153 -1.4023,-0.86667 -5.49072,2.21446 -4.6797,3.52672 0.36918,0.59735 0.22504,0.81032 -0.3203,0.47328 -1.44634,-0.89389 -5.47335,2.22701 -4.67388,3.62221 0.37238,0.64987 0.32074,0.85991 -0.11476,0.46676 -1.17082,-1.05697 -4.69897,1.13053 -3.90234,2.4195 0.37538,0.60739 0.23632,0.82857 -0.30902,0.49153 -1.44634,-0.89389 -5.47335,2.22701 -4.67388,3.62221 0.37238,0.64987 0.32074,0.85991 -0.11476,0.46676 -1.2151,-1.09695 -4.68413,1.14212 -3.89652,2.51499 0.37858,0.65991 0.33202,0.87816 -0.10348,0.48501 -1.2151,-1.09695 -4.68413,1.14212 -3.89652,2.51499 0.37858,0.65991 0.33202,0.87816 -0.10348,0.48501 -1.2151,-1.09695 -4.68413,1.14212 -3.89652,2.51499 0.37858,0.65991 0.33202,0.87816 -0.10348,0.48501 -1.2151,-1.09695 -4.68413,1.14212 -3.89652,2.51499 0.37858,0.65991 0.33202,0.87816 -0.10348,0.48501 -1.09945,-0.99254 -4.72337,1.09104 -3.98252,2.28977 0.33129,0.53603 0.23139,0.91016 -0.22199,0.83141 -1.89356,-0.32894 -3.40729,0.1504 -2.92734,0.92697 0.28327,0.45834 -0.0415,0.83334 -0.7218,0.83334 -1.98599,0 -6.71164,3.46534 -6.09227,4.46749 0.31115,0.50347 0.19479,0.85095 -0.25859,0.7722 -2.13047,-0.3701 -3.37668,0.19991 -2.72884,1.24815 0.39534,0.63967 0.27853,0.88567 -0.26193,0.55164 -1.27572,-0.78844 -21.5693,12.72478 -20.58608,13.708 0.41389,0.41388 0.30252,0.66173 -0.24748,0.55076 -2.2328,-0.45047 -3.5777,0.10035 -2.90451,1.1896 0.44169,0.71467 0.27436,0.88309 -0.43923,0.44207 -1.38464,-0.85576 -5.46252,1.76383 -4.3999,2.82645 0.409,0.409 0.29364,0.65285 -0.25636,0.54188 -2.2328,-0.45047 -3.5777,0.10035 -2.90451,1.1896 0.44169,0.71467 0.27436,0.88309 -0.43923,0.44207 -1.42117,-0.87834 -5.4298,1.76691 -4.3999,2.90344 0.409,0.45135 0.20819,0.51365 -0.44624,0.13844 -1.31494,-0.75388 -7.65853,2.67979 -6.70762,3.63071 0.32743,0.32743 -0.41955,0.32993 -1.65996,0.006 -1.55915,-0.40772 -2.03447,-0.23248 -1.53989,0.56776 0.39346,0.63663 0.57633,1.09477 0.40637,1.01809 -0.16996,-0.0767 -4.33919,-0.49598 -9.26495,-0.93175 z M 464.75,631.26779 c 2.3375,-0.21053 6.1625,-0.21053 8.5,0 2.3375,0.21054 0.425,0.3828 -4.25,0.3828 -4.675,0 -6.5875,-0.17226 -4.25,-0.3828 z m -60,-17.93007 c 0.6875,-0.27741 1.8125,-0.27741 2.5,0 0.6875,0.27741 0.125,0.50439 -1.25,0.50439 -1.375,0 -1.9375,-0.22698 -1.25,-0.50439 z m 66.0625,-20.02083 c 0.72187,-0.28887 1.58438,-0.25335 1.91667,0.0789 0.33229,0.33229 -0.25834,0.56864 -1.3125,0.52522 -1.16495,-0.048 -1.4019,-0.28494 -0.60417,-0.60416 z m 107.26645,-15.90022 c 0.048,-1.16495 0.28494,-1.4019 0.60416,-0.60417 0.28887,0.72187 0.25335,1.58438 -0.0789,1.91667 -0.33229,0.33229 -0.56864,-0.25834 -0.52522,-1.3125 z m 190.2408,-12.71528 c 0.68587,-0.48258 -0.36115,-0.6815 -2.4996,-0.4749 -2.15082,0.2078 -3.43627,-0.0386 -3.09363,-0.593 0.33618,-0.54396 -0.33413,-0.70786 -1.57153,-0.38427 -1.38267,0.36157 -1.92148,0.18197 -1.5,-0.5 0.42148,-0.68197 -0.11733,-0.86158 -1.5,-0.5 -1.39639,0.36516 -1.92296,0.18436 -1.49232,-0.51242 0.42493,-0.68755 0.0452,-0.83869 -1.05056,-0.41819 -1.15642,0.44376 -1.48251,0.28071 -1,-0.5 0.4825,-0.78072 0.15641,-0.94376 -1,-0.5 -1.01928,0.39113 -1.46793,0.25712 -1.10503,-0.33006 0.56039,-0.90673 -0.8151,-1.43245 -2.83141,-1.08219 -0.45338,0.0788 -0.55328,-0.29538 -0.22199,-0.83141 0.33128,-0.53603 -0.32439,-1.47057 -1.45705,-2.07675 -1.13267,-0.60619 -3.3354,-2.86364 -4.89497,-5.01655 -1.55956,-2.15292 -3.19259,-3.59203 -3.62894,-3.19803 -0.43635,0.39401 -0.4984,0.20037 -0.13788,-0.43031 0.72769,-1.27299 -1.64491,-7.7099 -2.51947,-6.83535 -0.30319,0.30319 -0.32044,-0.65619 -0.0383,-2.13197 0.30149,-1.57714 0.11782,-2.43904 -0.44556,-2.09086 -0.60334,0.37289 -1.05781,-13.83758 -1.22653,-38.35137 L 734.8369,459 H 745.41845 756 l 0.0136,35.25 c 0.0134,34.51993 0.32036,40.27964 2.08859,39.18681 0.48117,-0.29737 0.60553,0.16115 0.27636,1.01895 -0.81714,2.12944 7.0362,9.98278 9.16564,9.16564 1.01278,-0.38864 1.31128,-0.19665 0.85133,0.54758 -0.48178,0.77953 -0.0182,0.9656 1.44944,0.5818 1.18676,-0.31034 1.90557,-0.15623 1.59735,0.34248 C 771.12724,545.60314 773.99735,546 778,546 c 4.00265,0 6.87276,-0.39686 6.55764,-0.90674 -0.30822,-0.49871 0.41059,-0.65282 1.59735,-0.34248 1.46765,0.3838 1.93122,0.19773 1.44944,-0.5818 -0.47377,-0.76658 -0.1401,-0.92803 1.00768,-0.48759 1.15641,0.44376 1.4825,0.28072 1,-0.5 -0.45309,-0.7331 -0.1958,-0.95887 0.7007,-0.61485 1.58252,0.60727 6.33801,-4.51794 7.8278,-8.43637 0.53318,-1.40236 0.91787,-18.28769 0.88412,-38.80637 L 798.96497,459 H 809.98249 821 l -0.008,33.75 c -0.005,20.95907 -0.44328,36.21344 -1.15726,40.25 -0.63233,3.575 -1.19143,7.46953 -1.24244,8.65451 -0.051,1.18498 -0.3831,1.97506 -0.73797,1.75574 -0.97709,-0.60388 -1.9553,2.60589 -1.1977,3.92999 0.36496,0.63787 0.30581,0.83665 -0.13144,0.44174 -0.43726,-0.39491 -2.11562,0.94374 -3.72969,2.97478 -1.61407,2.03105 -4.91754,5.10257 -7.34104,6.82562 -2.42351,1.72305 -4.0798,3.49405 -3.68064,3.93555 0.39915,0.44149 0.1592,0.47653 -0.53322,0.0779 -1.74043,-1.0021 -5.42184,0.30268 -4.60106,1.63072 0.3906,0.63202 0.20419,0.79523 -0.44793,0.3922 -0.61433,-0.37968 -3.94636,-0.23889 -7.40451,0.31285 -8.24654,1.31573 -21.97767,1.83219 -20.4678,0.76984 z m 209.78205,-1.24831 c -3.51901,-0.76336 -6.85104,-1.10806 -7.40451,-0.766 -0.55347,0.34207 -0.71231,0.14624 -0.35299,-0.43516 0.36755,-0.5947 -0.63731,-1.50701 -2.29723,-2.08567 -1.62281,-0.56571 -4.62245,-2.16464 -6.66586,-3.55318 -2.04342,-1.38854 -4.15967,-2.24999 -4.70277,-1.91434 -0.5431,0.33566 -0.71044,0.16206 -0.37186,-0.38577 0.70361,-1.13847 -5.57963,-7.61926 -6.62233,-6.83054 -0.37634,0.28467 -0.47508,0.23341 -0.21943,-0.1139 0.77512,-1.05305 -1.49428,-4.46835 -2.53977,-3.8222 -0.53603,0.33129 -0.8743,0.23139 -0.7517,-0.22199 0.42913,-1.58699 -1.32602,-5.34801 -2.23389,-4.78691 -0.5052,0.31223 -0.62102,-0.20369 -0.25807,-1.14953 0.48212,-1.25638 0.30375,-1.49674 -0.66596,-0.89743 -0.88487,0.54688 -1.0858,0.43241 -0.60539,-0.3449 1.01071,-1.63536 -0.32602,-5.31552 -1.63654,-4.50557 -0.63923,0.39506 -0.79463,0.20322 -0.3795,-0.46847 0.82272,-1.3312 -0.31002,-8.34138 -1.25365,-7.75843 -0.35219,0.21758 -0.64035,-5.59345 -0.64035,-12.9134 0,-7.31995 0.28816,-13.13084 0.64035,-12.9131 0.35219,0.21775 0.94874,-1.24793 1.32565,-3.25706 0.37692,-2.00914 1.76509,-5.89125 3.08482,-8.62693 1.31973,-2.73567 2.11616,-5.43242 1.76984,-5.99278 -0.36021,-0.58282 -0.1356,-0.71348 0.52483,-0.30531 1.03093,0.63714 1.60398,-0.55787 1.27293,-2.65451 -0.0651,-0.4125 0.23882,-0.6375 0.67546,-0.5 0.98076,0.30885 9.6552,-8.46292 9.39459,-9.5 -0.10366,-0.4125 0.14903,-0.69671 0.56153,-0.63158 2.09664,0.33105 3.29165,-0.242 2.65451,-1.27293 -0.39289,-0.63571 -0.27872,-0.88578 0.25407,-0.5565 0.53218,0.3289 3.1892,-0.46242 5.90451,-1.75851 2.7153,-1.29608 6.62047,-2.67 8.67816,-3.05314 2.05769,-0.38315 3.56316,-0.9848 3.34549,-1.33699 C 978.36907,457.78816 983.50504,457.5 990,457.5 c 6.49496,0 11.6309,0.28816 11.4133,0.64035 -0.5832,0.94362 6.427,2.07639 7.7582,1.25365 0.6682,-0.41299 0.8637,-0.25997 0.4738,0.3709 -0.3891,0.62952 0.7626,1.54463 2.783,2.21144 1.8957,0.62564 4.5955,2.04115 5.9996,3.14558 1.404,1.10443 3.0767,1.68428 3.717,1.28856 0.6812,-0.42104 0.8962,-0.28596 0.5182,0.32563 -0.3553,0.57482 0.4918,1.79056 1.8823,2.70166 1.3905,0.91109 4.4838,4.31311 6.8741,7.56003 2.3902,3.24692 4.6474,5.60192 5.016,5.23333 0.3686,-0.36859 0.3449,0.17744 -0.053,1.2134 -0.4996,1.30195 -0.3651,1.66248 0.4357,1.16758 0.7807,-0.48251 0.9438,-0.15642 0.5,1 -0.4821,1.25638 -0.3037,1.49674 0.666,0.89743 0.8248,-0.50979 1.084,-0.42948 0.6869,0.21291 -0.3506,0.5673 0.3099,4.77749 1.4677,9.35596 2.1169,8.37155 2.1373,9.56451 0.5482,32.0761 -0.1031,1.45998 -0.5958,2.40211 -1.0949,2.09363 -0.5006,-0.30937 -0.6431,0.45043 -0.3178,1.6944 0.3244,1.24041 0.3131,1.9786 -0.025,1.64043 -0.8716,-0.8716 -5.2703,8.57448 -4.5418,9.75328 0.3307,0.53502 0.1043,0.66563 -0.5031,0.29025 -0.9582,-0.5922 -3.5044,2.45331 -2.9195,3.49202 0.1181,0.20981 0.019,0.26107 -0.2195,0.1139 -0.8412,-0.51836 -6.981,6.09563 -6.4525,6.95081 0.2945,0.47648 0.1645,0.78373 -0.2889,0.68279 -1.6417,-0.36552 -4.2971,1.36894 -3.664,2.39327 0.3568,0.57735 0.2133,0.78062 -0.3189,0.45172 -0.5322,-0.3289 -3.2517,0.49512 -6.0434,1.83117 -10.9351,5.23336 -23.72785,6.61558 -36.1962,3.9109 z m 20.63695,-18.08042 c 1.23132,-0.33002 1.94925,-1.06841 1.59545,-1.64086 -0.35749,-0.5785 -0.1637,-0.74445 0.4364,-0.3736 1.3628,0.8423 6.3473,-1.35849 5.6461,-2.49297 -0.2863,-0.46328 0.1057,-0.602 0.8711,-0.30827 1.2485,0.47907 4.2122,-1.9559 4.2122,-3.46065 0,-0.32797 0.3127,-0.49206 0.695,-0.36465 1.2291,0.4097 4.9571,-5.67658 4.2137,-6.87934 -0.409,-0.66186 -0.2841,-0.89333 0.2906,-0.53819 2.9155,1.80188 6.089,-15.34122 4.5544,-24.60238 -1.2075,-7.28668 -4.9791,-15.99949 -6.515,-15.05023 -0.6191,0.38257 -0.7494,0.16476 -0.3185,-0.53234 0.9721,-1.57293 -5.9765,-8.52147 -7.5494,-7.54934 -0.6789,0.41962 -0.9153,0.30114 -0.5567,-0.2791 0.774,-1.25235 -4.0644,-3.57308 -5.5435,-2.65894 -0.6001,0.37085 -0.79389,0.2049 -0.4364,-0.3736 0.9009,-1.4576 -2.71382,-2.23857 -10.43498,-2.25455 -7.2586,-0.015 -13.27131,1.57528 -12.24352,3.23827 0.39184,0.63402 0.17366,0.76065 -0.54517,0.31639 -1.6377,-1.01215 -6.3595,2.19679 -5.48207,3.72562 0.3807,0.66334 0.32395,0.87247 -0.12613,0.46475 -1.11957,-1.01424 -3.6378,1.21311 -2.83681,2.50914 0.36327,0.58777 0.16258,0.74397 -0.46084,0.35868 -1.28897,-0.79663 -3.47647,2.73152 -2.4195,3.90234 0.39315,0.4355 0.19947,0.49725 -0.4304,0.13723 -1.33921,-0.76547 -2.66588,2.02154 -1.70352,3.57868 0.37001,0.59868 0.18795,0.77391 -0.41616,0.40055 -1.55062,-0.95834 -3.56744,5.91727 -2.84359,9.69422 0.43337,2.26129 0.32594,2.73371 -0.37759,1.66048 -0.7018,-1.07059 -0.98329,0.21765 -0.98329,4.5 0,4.02073 0.30219,5.52233 0.91609,4.55197 0.59233,-0.93626 0.70983,0.0897 0.33248,2.90309 -0.45978,3.42794 -0.30636,4.17976 0.72311,3.54351 0.84457,-0.52197 1.06441,-0.41554 0.6216,0.30093 -0.91504,1.48058 0.35075,6.3342 1.47131,5.64165 0.48503,-0.29976 0.58555,0.22717 0.22339,1.17096 -0.44376,1.15641 -0.28072,1.4825 0.5,1 0.7104,-0.43905 0.96436,-0.21011 0.65659,0.59192 -0.66212,1.72547 5.37594,9.006 6.75977,8.15075 0.60611,-0.3746 0.78618,-0.19802 0.41331,0.4053 -0.8743,1.41464 5.97044,5.60021 7.92904,4.84862 0.98422,-0.37768 1.27492,-0.17863 0.81825,0.56028 -0.48178,0.77953 -0.0182,0.9656 1.44944,0.5818 1.18676,-0.31034 1.90557,-0.15623 1.59735,0.34248 -0.62226,1.00685 11.73978,1.23265 15.29639,0.2794 z M 1020.2724,511 c 0,-2.475 0.195,-3.4875 0.4333,-2.25 0.2384,1.2375 0.2384,3.2625 0,4.5 -0.2383,1.2375 -0.4333,0.225 -0.4333,-2.25 z m -647.50449,52.27527 c 1.79735,-0.22256 4.49735,-0.21797 6,0.0102 1.50265,0.22818 0.0321,0.41027 -3.26791,0.40466 -3.3,-0.006 -4.52944,-0.1923 -2.73209,-0.41486 z M 625.5,560.59549 c 0,-1.32248 0.40839,-2.15211 0.90752,-1.84363 0.49914,0.30849 0.65361,-0.4101 0.34326,-1.59687 -0.36157,-1.38267 -0.18197,-1.92148 0.5,-1.5 0.68197,0.42148 0.86158,-0.11733 0.5,-1.5 -0.31034,-1.18676 -0.23677,-1.95535 0.16349,-1.70797 1.09135,0.67449 4.37159,-9.17547 3.51642,-10.55917 -0.49934,-0.80794 -0.31336,-0.93337 0.57233,-0.38599 0.97745,0.6041 1.16813,0.26064 0.74776,-1.34687 -0.36157,-1.38267 -0.18197,-1.92148 0.5,-1.5 0.68197,0.42148 0.86158,-0.11733 0.5,-1.5 -0.31034,-1.18676 -0.23224,-1.95255 0.17357,-1.70175 1.10335,0.68191 5.37709,-12.15648 4.51246,-13.55549 -0.50558,-0.81803 -0.32319,-0.94556 0.56621,-0.39589 0.98543,0.60904 1.16522,0.24949 0.72226,-1.4444 -0.32438,-1.24041 -0.31096,-1.97647 0.0298,-1.6357 0.86815,0.86814 4.36346,-8.63332 3.76101,-10.2237 -0.29895,-0.78917 -0.0418,-1.02297 0.65288,-0.59363 0.77953,0.48178 0.9656,0.0182 0.5818,-1.44944 -0.36157,-1.38267 -0.18197,-1.92148 0.5,-1.5 0.68845,0.42549 0.85601,-0.13864 0.4745,-1.59753 -0.32438,-1.24041 -0.30873,-1.97425 0.0348,-1.63075 0.86079,0.86078 5.32976,-11.61385 4.73909,-13.22865 -0.2876,-0.78627 -0.0223,-1.02139 0.66985,-0.59363 0.77953,0.48178 0.9656,0.0182 0.5818,-1.44944 -0.36157,-1.38267 -0.18197,-1.92148 0.5,-1.5 0.68197,0.42148 0.86158,-0.11733 0.5,-1.5 -0.31034,-1.18676 -0.20654,-1.93667 0.23067,-1.66645 1.08733,0.672 4.25677,-9.29408 3.39775,-10.684 -0.44686,-0.72303 -0.22808,-0.82918 0.62382,-0.30268 0.97745,0.6041 1.16813,0.26064 0.74776,-1.34687 -0.31034,-1.18676 -0.20486,-1.93563 0.2344,-1.66415 0.43926,0.27148 1.39554,-1.5279 2.12506,-3.99862 L 661.43663,459 h 13.74154 13.74155 l 1.18862,3.96725 c 0.65373,2.18199 1.52983,3.75637 1.94688,3.49862 0.41704,-0.25774 0.50434,0.50236 0.194,1.68912 -0.36158,1.38267 -0.18197,1.92148 0.5,1.5 0.68197,-0.42148 0.86157,0.11733 0.5,1.5 -0.3838,1.46765 -0.19773,1.93122 0.5818,1.44944 0.6947,-0.42934 0.95183,-0.19554 0.65288,0.59363 -0.65364,1.7255 2.93047,11.05424 3.88161,10.10309 0.40711,-0.4071 0.47799,-0.0569 0.15752,0.77825 -0.66667,1.7373 3.77294,14.2913 4.71931,13.34493 0.34218,-0.34219 0.35676,0.39272 0.0324,1.63313 -0.44296,1.69389 -0.26317,2.05344 0.72226,1.4444 0.88569,-0.54738 1.07167,-0.42195 0.57233,0.38599 -0.85517,1.3837 2.42507,11.23366 3.51642,10.55917 0.40026,-0.24738 0.47383,0.52121 0.16349,1.70797 -0.3838,1.46765 -0.19773,1.93122 0.5818,1.44944 0.6947,-0.42934 0.95183,-0.19554 0.65288,0.59363 -0.60245,1.59038 2.89286,11.09184 3.76101,10.2237 0.34077,-0.34077 0.35419,0.39529 0.0298,1.6357 -0.44296,1.69389 -0.26317,2.05344 0.72226,1.4444 0.87806,-0.54266 1.07143,-0.42157 0.58462,0.3661 -0.89886,1.4544 2.26885,11.3425 3.40808,10.63842 0.45309,-0.28003 0.56988,0.46185 0.25954,1.64861 -0.42037,1.60751 -0.22969,1.95097 0.74776,1.34687 0.88569,-0.54738 1.07167,-0.42195 0.57233,0.38599 -0.85517,1.3837 2.42507,11.23366 3.51642,10.55917 0.40026,-0.24738 0.47383,0.52121 0.16349,1.70797 -0.31035,1.18677 -0.15588,1.90786 0.34326,1.60243 0.49913,-0.30544 0.98803,0.9742 1.08643,2.84362 L 724.85782,563 H 713.92891 C 704.69712,563 703,562.75791 703,561.44098 c 0,-0.85746 -0.40803,-1.30684 -0.90674,-0.99862 -0.49871,0.30822 -0.65282,-0.41059 -0.34248,-1.59735 0.36158,-1.38267 0.18197,-1.92148 -0.5,-1.5 -0.68197,0.42148 -0.86157,-0.11733 -0.5,-1.5 0.36158,-1.38267 0.18197,-1.92148 -0.5,-1.5 -0.68197,0.42148 -0.86157,-0.11733 -0.5,-1.5 0.36158,-1.38267 0.18197,-1.92148 -0.5,-1.5 -0.68197,0.42148 -0.86157,-0.11733 -0.5,-1.5 0.36158,-1.38267 0.18197,-1.92148 -0.5,-1.5 -0.68197,0.42148 -0.86157,-0.11733 -0.5,-1.5 0.33535,-1.28238 0.16605,-1.91164 -0.41732,-1.5511 -0.53987,0.33366 -0.94825,-0.38348 -0.90752,-1.59363 L 696.5,541.5 H 675.06704 653.63409 L 650.1011,552.25 646.56811,563 H 636.03406 C 625.57595,563 625.5,562.98266 625.5,560.59549 Z m 64.89275,-36.42195 c 0.74441,-1.20449 -0.47868,-5.23846 -1.41318,-4.66091 -0.43618,0.26957 -0.53913,-0.48086 -0.22879,-1.66762 0.36158,-1.38267 0.18197,-1.92148 -0.5,-1.5 -0.68197,0.42148 -0.86157,-0.11733 -0.5,-1.5 0.36158,-1.38267 0.18197,-1.92148 -0.5,-1.5 -0.68197,0.42148 -0.86157,-0.11733 -0.5,-1.5 0.36158,-1.38267 0.18197,-1.92148 -0.5,-1.5 -0.68197,0.42148 -0.86157,-0.11733 -0.5,-1.5 0.36158,-1.38267 0.18197,-1.92148 -0.5,-1.5 -0.68197,0.42148 -0.86157,-0.11733 -0.5,-1.5 0.36158,-1.38267 0.18197,-1.92148 -0.5,-1.5 -0.68197,0.42148 -0.86157,-0.11733 -0.5,-1.5 0.36158,-1.38267 0.18197,-1.92148 -0.5,-1.5 -0.68197,0.42148 -0.86157,-0.11733 -0.5,-1.5 0.42037,-1.60751 0.22969,-1.95097 -0.74776,-1.34687 -0.86062,0.53189 -1.07092,0.42074 -0.61122,-0.32306 0.85576,-1.38466 -1.38501,-9.29731 -2.44702,-8.64095 -0.41704,0.25774 -0.50434,-0.50236 -0.194,-1.68912 0.42037,-1.60751 0.22969,-1.95097 -0.74776,-1.34687 -0.87272,0.53936 -1.07127,0.42131 -0.59298,-0.35258 0.39548,-0.6399 0.42716,-2.08312 0.0704,-3.20716 -0.47792,-1.50579 -0.97973,-1.76892 -1.90656,-0.99973 -0.69185,0.57419 -1.61552,0.71038 -2.05261,0.30265 -0.43708,-0.40772 -0.57318,0.48256 -0.30244,1.97842 0.27073,1.49585 0.14523,2.50527 -0.27889,2.24315 -1.10711,-0.68423 -6.23242,15.25487 -5.35947,16.66732 0.48795,0.78953 0.29527,0.91103 -0.5835,0.36793 -0.97745,-0.6041 -1.16813,-0.26064 -0.74776,1.34687 0.36157,1.38267 0.18197,1.92148 -0.5,1.5 -0.68197,-0.42148 -0.86158,0.11733 -0.5,1.5 0.36157,1.38267 0.18197,1.92148 -0.5,1.5 -0.68197,-0.42148 -0.86158,0.11733 -0.5,1.5 0.36157,1.38267 0.18197,1.92148 -0.5,1.5 -0.68197,-0.42148 -0.86158,0.11733 -0.5,1.5 0.31034,1.18676 0.22304,1.94686 -0.194,1.68912 -0.71995,-0.44496 -3.05522,5.92356 -3.05522,8.33189 0,1.34308 29.56784,1.64225 30.39275,0.30752 z M 842.46533,511 c 0,-28.875 0.12777,-40.6875 0.28394,-26.25 0.15616,14.4375 0.15616,38.0625 0,52.5 -0.15617,14.4375 -0.28394,2.625 -0.28394,-26.25 z M 844,511 v -52 h 9.5 9.5 v 22.41152 c 0,22.97975 0.098,23.53259 3.76631,21.24126 0.69647,-0.43504 0.96444,-1.27941 0.59549,-1.87639 -0.38943,-0.63011 -0.20771,-0.79919 0.43319,-0.40309 1.18274,0.73097 5.892,-4.96505 5.43023,-6.56807 -0.15112,-0.52464 0.13631,-0.69983 0.63875,-0.3893 1.17613,0.72689 6.27938,-5.91421 5.34278,-6.95283 -0.38871,-0.43107 -0.16697,-0.47409 0.49275,-0.0956 1.27528,0.73161 6.00781,-4.88867 5.52572,-6.56225 -0.15112,-0.52464 0.16365,-0.68293 0.69951,-0.35175 1.08769,0.67223 5.73143,-5.15226 5.30049,-6.64825 -0.15112,-0.52464 0.14687,-0.6933 0.66221,-0.3748 1.20752,0.74629 7.29356,-6.89114 6.3358,-7.95086 -0.39778,-0.44012 -0.19514,-0.49778 0.4503,-0.12814 0.67641,0.38738 2.09714,-0.625 3.35382,-2.38984 l 2.18029,-3.06193 11.9482,0.16481 c 6.57151,0.0907 12.22479,-0.11177 12.56285,-0.44982 0.33805,-0.33806 -4.97286,-0.71084 -11.80202,-0.82841 L 904.5,457.57249 l 11.43886,-0.32076 c 12.89268,-0.36153 14.93517,-0.01 13.06046,2.24909 -0.67426,0.81244 -1.57396,1.26207 -1.99932,0.99918 -1.00365,-0.62029 -3.07753,1.89439 -3.46402,4.20029 -0.16591,0.98984 -0.77961,1.69546 -1.36378,1.56805 -0.97623,-0.21292 -4.46628,3.88114 -5.31228,6.23166 -0.19796,0.55 -0.67266,0.89575 -1.05489,0.76834 -0.65751,-0.21917 -5.29286,5.66702 -5.30114,6.73166 -0.002,0.275 -0.31663,0.39575 -0.69886,0.26834 -1.11691,-0.3723 -4.81768,5.37801 -4.02548,6.25486 0.39625,0.4386 0.19236,0.49501 -0.45308,0.12537 -1.38029,-0.7905 -5.61986,4.68704 -4.54692,5.87463 0.39625,0.4386 0.18067,0.48779 -0.47905,0.10932 -1.27528,-0.73161 -6.00781,4.88867 -5.52572,6.56225 0.15112,0.52464 -0.16661,0.6811 -0.70607,0.34769 -1.40123,-0.86601 -4.23589,3.85831 -3.48661,5.81089 0.34511,0.89934 1.14282,1.3406 1.77268,0.98058 0.62987,-0.36002 0.82355,-0.29827 0.4304,0.13723 -0.99254,1.09945 1.09104,4.72337 2.28977,3.98252 0.53603,-0.33129 0.91016,-0.23139 0.83141,0.22199 -0.38177,2.19765 0.20173,3.38016 1.34364,2.72302 0.6875,-0.39564 0.92833,-0.36303 0.53518,0.0725 -1.05697,1.17082 1.13053,4.69897 2.4195,3.90234 0.67318,-0.41604 0.82082,-0.22377 0.37816,0.49246 -0.75685,1.2246 3.72749,7.36297 4.80594,6.57859 0.33617,-0.2445 0.40205,-0.16038 0.1464,0.18693 -0.71383,0.9698 1.45275,4.49401 2.40209,3.90729 0.46031,-0.28449 0.77523,0.26541 0.69983,1.22199 -0.0841,1.06646 0.44313,1.6103 1.3629,1.40591 0.825,-0.18334 1.17833,-0.0117 0.78518,0.38148 -1.08065,1.08066 1.15114,4.60924 2.4195,3.82535 0.6078,-0.37564 0.82499,-0.23052 0.48305,0.32274 -0.71111,1.15061 3.66597,7.53002 4.65903,6.79033 0.35928,-0.26761 0.44407,-0.2024 0.18842,0.14491 -0.83155,1.12972 1.53307,4.44437 2.6695,3.74202 0.6078,-0.37564 0.82499,-0.23052 0.48305,0.32274 -0.71111,1.15061 3.66597,7.53002 4.65903,6.79033 0.35928,-0.26761 0.44407,-0.2024 0.18842,0.14491 -0.86572,1.17614 1.54629,4.43537 2.76499,3.7362 0.65991,-0.37858 0.86075,-0.31461 0.44632,0.14217 -0.41443,0.45677 -0.0666,1.87892 0.77306,3.16032 L 932.04611,563 H 919.15905 906.272 l -2.75985,-3.98247 c -1.51792,-2.19036 -3.07912,-3.78516 -3.46934,-3.54399 -0.39021,0.24117 -0.70948,-0.11809 -0.70948,-0.79835 0,-2.11801 -3.49742,-6.69181 -4.59722,-6.0121 -0.57482,0.35526 -0.77311,0.2058 -0.44065,-0.33214 0.67084,-1.08544 -6.00988,-10.94491 -7.20722,-10.63651 -0.4152,0.10695 -0.75491,-0.35692 -0.75491,-1.03081 0,-2.17709 -3.51517,-6.66756 -4.69271,-5.99472 -0.62734,0.35846 -0.81895,0.29543 -0.4258,-0.14007 1.05697,-1.17082 -1.13053,-4.69897 -2.4195,-3.90234 -0.60739,0.37538 -0.82857,0.23632 -0.49153,-0.30902 0.7755,-1.25479 -2.00911,-5.31748 -3.64465,-5.31748 -0.67511,0 -3.57459,2.37665 -6.4433,5.28145 L 863,531.56289 V 547.28145 563 h -9.5 -9.5 z m 238.7607,9.25 -0.2607,-42.75 -15.75,-0.27539 -15.75,-0.2754 V 467.97461 459 h 41 41 v 8.97327 8.97326 l -14.75,0.27674 -14.75,0.27673 -0.2607,42.75 -0.2608,42.75 H 1093 h -9.9785 z m 68.7046,-9.25 c 0,-28.875 0.1278,-40.6875 0.284,-26.25 0.1561,14.4375 0.1561,38.0625 0,52.5 -0.1562,14.4375 -0.284,2.625 -0.284,-26.25 z m 1.5347,0 v -52 h 10 10 v 52 52 h -10 -10 z m 21.4653,0 c 0,-28.875 0.1278,-40.6875 0.284,-26.25 0.1561,14.4375 0.1561,38.0625 0,52.5 -0.1562,14.4375 -0.284,2.625 -0.284,-26.25 z M 792,540.62244 c 0,-0.20765 0.7875,-0.99515 1.75,-1.75 1.58606,-1.24387 1.62143,-1.2085 0.37756,0.37756 C 792.82119,540.91575 792,541.44548 792,540.62244 Z m 145.07895,-35.20577 c 0.048,-1.16495 0.28494,-1.4019 0.60416,-0.60417 0.28887,0.72187 0.25335,1.58438 -0.0789,1.91667 -0.33229,0.33229 -0.56864,-0.25834 -0.52522,-1.3125 z M 1134.2522,471.5 c 0.011,-2.2 0.2159,-2.98225 0.4551,-1.73834 0.2392,1.24391 0.2301,3.04391 -0.02,4 -0.2503,0.95609 -0.446,-0.0617 -0.4349,-2.26166 z M 985.75,456.33772 c 0.6875,-0.27741 1.8125,-0.27741 2.5,0 0.6875,0.27741 0.125,0.50439 -1.25,0.50439 -1.375,0 -1.9375,-0.22698 -1.25,-0.50439 z m 7.0625,-0.0208 c 0.72187,-0.28887 1.58438,-0.25335 1.91667,0.0789 0.33229,0.33229 -0.25834,0.56864 -1.3125,0.52522 -1.16495,-0.048 -1.4019,-0.28494 -0.60417,-0.60416 z"
         id="path4" /><path
         style="fill:#000c2e"
         d="m 444,668.94098 c 0,-0.58246 0.45,-0.7809 1,-0.44098 0.55,0.33992 1,0.81648 1,1.05902 0,0.24254 -0.45,0.44098 -1,0.44098 -0.55,0 -1,-0.47656 -1,-1.05902 z M 326,643 c -0.90129,-0.58246 -1.02463,-0.97549 -0.30902,-0.98469 0.65504,-0.008 1.4691,0.43469 1.80902,0.98469 0.7673,1.24153 0.42112,1.24153 -1.5,0 z m 23,-5 c 0,-0.55 0.47656,-1 1.05902,-1 0.58246,0 0.7809,0.45 0.44098,1 -0.33992,0.55 -0.81648,1 -1.05902,1 C 349.19844,639 349,638.55 349,638 Z m 110,-6.00855 c -1.02403,-0.66761 0.0866,-0.77671 3.5,-0.34381 2.75,0.34876 5.1875,0.79572 5.41667,0.99324 0.99344,0.85624 -7.56307,0.23305 -8.91667,-0.64943 z M 476.5,632 c 0.33992,-0.55 1.26648,-1 2.05902,-1 0.79254,0 1.44098,0.45 1.44098,1 0,0.55 -0.92656,1 -2.05902,1 -1.13246,0 -1.7809,-0.45 -1.44098,-1 z m -29,-1 c -0.731,-1.18278 0.24752,-1.18278 3,0 1.92824,0.82859 1.92138,0.86195 -0.19098,0.92971 C 449.10398,631.96837 447.83992,631.55 447.5,631 Z m 38,0 c 0.33992,-0.55 0.81648,-1 1.05902,-1 0.24254,0 0.44098,0.45 0.44098,1 0,0.55 -0.47656,1 -1.05902,1 -0.58246,0 -0.7809,-0.45 -0.44098,-1 z M 440,630.03138 c 0,-0.53273 0.675,-0.70959 1.5,-0.39301 0.825,0.31659 1.5,0.75246 1.5,0.96862 0,0.21615 -0.675,0.39301 -1.5,0.39301 -0.825,0 -1.5,-0.43588 -1.5,-0.96862 z m -7,-1 c 0,-0.53273 0.675,-0.70959 1.5,-0.39301 0.825,0.31659 1.5,0.75246 1.5,0.96862 0,0.21615 -0.675,0.39301 -1.5,0.39301 -0.825,0 -1.5,-0.43588 -1.5,-0.96862 z m -11,-2.0904 c 0,-0.58246 0.45,-0.7809 1,-0.44098 0.55,0.33992 1,0.81648 1,1.05902 0,0.24254 -0.45,0.44098 -1,0.44098 -0.55,0 -1,-0.47656 -1,-1.05902 z m -5,-1 c 0,-0.58246 0.45,-0.7809 1,-0.44098 0.55,0.33992 1,0.81648 1,1.05902 0,0.24254 -0.45,0.44098 -1,0.44098 -0.55,0 -1,-0.47656 -1,-1.05902 z m -13.59501,-4.08263 c -1.89822,-2.13405 -1.897,-2.13675 0.34501,-0.75946 1.2375,0.76021 2.25,1.72396 2.25,2.14166 0,1.20572 -0.55693,0.90908 -2.59501,-1.3822 z M 456.5,621 l -2,-0.85943 2,-0.055 c 1.1,-0.0302 2.675,0.38124 3.5,0.9144 1.33333,0.86167 1.33333,0.96327 0,0.9144 -0.825,-0.0302 -2.4,-0.44171 -3.5,-0.9144 z m 15,0 c 1.1,-0.47269 2.9,-0.85943 4,-0.85943 h 2 L 475.5,621 c -1.1,0.47269 -2.9,0.85943 -4,0.85943 h -2 z m -26,-1 c -1.92824,-0.82859 -1.92138,-0.86195 0.19098,-0.92971 1.20504,-0.0387 2.4691,0.37971 2.80902,0.92971 0.731,1.18278 -0.24752,1.18278 -3,0 z m 37.5,0 c 0,-0.55 0.47656,-1 1.05902,-1 0.58246,0 0.7809,0.45 0.44098,1 -0.33992,0.55 -0.81648,1 -1.05902,1 C 483.19844,621 483,620.55 483,620 Z m -51.5,-2 c -0.33992,-0.55 -0.14148,-1 0.44098,-1 0.58246,0 1.05902,0.45 1.05902,1 0,0.55 -0.19844,1 -0.44098,1 -0.24254,0 -0.7191,-0.45 -1.05902,-1 z m 60.5,0 c 0,-0.55 0.47656,-1 1.05902,-1 0.58246,0 0.7809,0.45 0.44098,1 -0.33992,0.55 -0.81648,1 -1.05902,1 C 492.19844,619 492,618.55 492,618 Z m -90.45729,-0.9309 c -0.31644,-0.512 -0.19299,-1.1672 0.27431,-1.45601 0.46731,-0.28881 0.84965,0.13009 0.84965,0.9309 0,1.68617 -0.31534,1.83349 -1.12396,0.52511 z M 425.5,617 c -0.33992,-0.55 -0.16803,-1 0.38197,-1 0.55,0 1.27811,0.45 1.61803,1 0.33992,0.55 0.16803,1 -0.38197,1 -0.55,0 -1.27811,-0.45 -1.61803,-1 z m -10,-2 c -0.33992,-0.55 -0.14148,-1 0.44098,-1 0.58246,0 1.05902,0.45 1.05902,1 0,0.55 -0.19844,1 -0.44098,1 -0.24254,0 -0.7191,-0.45 -1.05902,-1 z m 98,0 c 0.33992,-0.55 0.81648,-1 1.05902,-1 0.24254,0 0.44098,0.45 0.44098,1 0,0.55 -0.47656,1 -1.05902,1 -0.58246,0 -0.7809,-0.45 -0.44098,-1 z m 25.5,0.059 c 0,-0.51754 0.44485,-1.21592 0.98855,-1.55194 0.56686,-0.35034 0.7345,0.0511 0.39301,0.94098 C 539.71677,616.18048 539,616.49745 539,615.05902 Z m -24.61071,-7.14495 c -0.0731,-2.03328 0.17683,-2.62774 0.73468,-1.74772 1.05214,1.65978 1.13495,4.83444 0.12603,4.83137 -0.4125,-10e-4 -0.79982,-1.3889 -0.86071,-3.08365 z M 548,608.05902 c 0,-0.51754 0.44485,-1.21592 0.98855,-1.55194 0.56686,-0.35034 0.7345,0.0511 0.39301,0.94098 C 548.71677,609.18048 548,609.49745 548,608.05902 Z m 5,-4 c 0,-0.51754 0.44485,-1.21592 0.98855,-1.55194 0.56686,-0.35034 0.7345,0.0511 0.39301,0.94098 C 553.71677,605.18048 553,605.49745 553,604.05902 Z M 309.5,602 c -0.33992,-0.55 -0.14148,-1 0.44098,-1 0.58246,0 1.05902,0.45 1.05902,1 0,0.55 -0.19844,1 -0.44098,1 -0.24254,0 -0.7191,-0.45 -1.05902,-1 z m 188.90499,-1.25 -1.90499,-2.25 2.5,1.98934 c 1.375,1.09414 2.6875,2.10664 2.91667,2.25 0.22916,0.14336 -0.0386,0.26066 -0.59502,0.26066 -0.55642,0 -1.86892,-1.0125 -2.91666,-2.25 z M 510,596 c -0.90129,-0.58246 -1.02463,-0.97549 -0.30902,-0.98469 0.65504,-0.008 1.4691,0.43469 1.80902,0.98469 0.7673,1.24153 0.42112,1.24153 -1.5,0 z m 53,0.11803 c 0,-0.55 0.45,-1.27811 1,-1.61803 0.55,-0.33992 1,-0.16803 1,0.38197 0,0.55 -0.45,1.27811 -1,1.61803 -0.55,0.33992 -1,0.16803 -1,-0.38197 z m -256,-1.17705 c 0,-0.58246 0.45,-0.7809 1,-0.44098 0.55,0.33992 1,0.81648 1,1.05902 0,0.24254 -0.45,0.44098 -1,0.44098 -0.55,0 -1,-0.47656 -1,-1.05902 z M 467.5,594 c -0.73784,-1.19384 1.22178,-1.19384 4,0 1.78583,0.7674 1.71184,0.86696 -0.69098,0.92971 C 469.32898,594.96837 467.83992,594.55 467.5,594 Z m -9,-1 c -0.33992,-0.55 -0.16803,-1 0.38197,-1 0.55,0 1.27811,0.45 1.61803,1 0.33992,0.55 0.16803,1 -0.38197,1 -0.55,0 -1.27811,-0.45 -1.61803,-1 z m -147.86163,-2.5 c 0.31659,-0.825 1.03256,-1.5 1.59106,-1.5 0.58531,0 0.48812,0.63541 -0.22943,1.5 -0.68469,0.825 -1.40067,1.5 -1.59106,1.5 -0.19039,0 -0.0871,-0.675 0.22943,-1.5 z M 570,590.31339 c 0,-1.11305 3.83815,-4.8743 4.31029,-4.22393 0.16392,0.2258 -0.73884,1.49432 -2.00613,2.81895 C 571.03687,590.23303 570,590.86527 570,590.31339 Z M 577.15789,578 c 0,-1.375 0.22698,-1.9375 0.50439,-1.25 0.27741,0.6875 0.27741,1.8125 0,2.5 -0.27741,0.6875 -0.50439,0.125 -0.50439,-1.25 z M 557.5,566 c 0.33992,-0.55 0.81648,-1 1.05902,-1 0.24254,0 0.44098,0.45 0.44098,1 0,0.55 -0.47656,1 -1.05902,1 -0.58246,0 -0.7809,-0.45 -0.44098,-1 z m 4.12361,-1.2 c 0.27193,-0.44 1.56631,-0.8 2.87639,-0.8 1.31008,0 2.60446,0.36 2.87639,0.8 0.27194,0.44 -1.02244,0.8 -2.87639,0.8 -1.85395,0 -3.14833,-0.36 -2.87639,-0.8 z M 785.5,565 c 0.33992,-0.55 1.37898,-0.99311 2.30902,-0.98469 1.45727,0.0132 1.48367,0.14929 0.19098,0.98469 -1.95837,1.2656 -3.28218,1.2656 -2.5,0 z m 196.5,0 c -1.2819,-0.82843 -1.24555,-0.9716 0.25,-0.98469 0.9625,-0.008 1.75,0.43469 1.75,0.98469 0,1.21961 -0.11279,1.21961 -2,0 z m 16,-0.0314 c 0,-0.53272 0.675,-0.9686 1.5,-0.9686 0.825,0 1.5,0.17686 1.5,0.39301 0,0.21616 -0.675,0.65203 -1.5,0.96862 -0.825,0.31658 -1.5,0.13972 -1.5,-0.39301 z m -625.23209,-0.69335 c 1.79735,-0.22256 4.49735,-0.21797 6,0.0102 1.50265,0.22818 0.0321,0.41027 -3.26791,0.40466 -3.3,-0.006 -4.52944,-0.1923 -2.73209,-0.41486 z M 1003,564 c 0,-0.55 0.4766,-1 1.059,-1 0.5825,0 0.7809,0.45 0.441,1 -0.3399,0.55 -0.8165,1 -1.059,1 -0.2426,0 -0.441,-0.45 -0.441,-1 z M 842.5,511 c 0,-29.04496 0.3375,-52.60043 0.75,-52.34549 0.4125,0.25494 0.75,23.81041 0.75,52.34549 0,28.53508 -0.3375,52.09055 -0.75,52.34549 C 842.8375,563.60043 842.5,540.04496 842.5,511 Z m 309,0 c 0,-29.04496 0.3375,-52.60043 0.75,-52.34549 0.4125,0.25494 0.75,23.81041 0.75,52.34549 0,28.53508 -0.3375,52.09055 -0.75,52.34549 -0.4125,0.25494 -0.75,-23.30053 -0.75,-52.34549 z m 21.7266,0.30902 c -0.1246,-28.70504 0.1109,-52.39986 0.5234,-52.65514 0.6812,-0.42156 0.6693,38.85161 -0.026,86.34612 -0.149,10.175 -0.3728,-4.98594 -0.4974,-33.69098 z M 647,561 c 0,-0.55 0.47656,-1 1.05902,-1 0.58246,0 0.7809,0.45 0.44098,1 -0.33992,0.55 -0.81648,1 -1.05902,1 C 647.19844,562 647,561.55 647,561 Z m 256,-1 c -0.90129,-0.58246 -1.02463,-0.97549 -0.30902,-0.98469 0.65504,-0.008 1.4691,0.43469 1.80902,0.98469 0.7673,1.24153 0.42112,1.24153 -1.5,0 z m -179.28975,-2 c -0.28766,-1.1 -0.35597,-2 -0.15181,-2 0.20415,0 0.85286,0.9 1.44156,2 0.59134,1.10492 0.65928,2 0.15182,2 -0.50521,0 -1.15391,-0.9 -1.44157,-2 z M 807,557.05902 c 0,-0.51754 0.44485,-1.21592 0.98855,-1.55194 0.56686,-0.35034 0.7345,0.0511 0.39301,0.94098 C 807.71677,558.18048 807,558.49745 807,557.05902 Z m 93,-1.11804 c 0,-0.58246 0.45,-0.7809 1,-0.44098 0.55,0.33992 1,0.81648 1,1.05902 0,0.24254 -0.45,0.44098 -1,0.44098 -0.55,0 -1,-0.47656 -1,-1.05902 z m 52.60292,-5.19071 c -1.59339,-1.53419 -2.68559,-3.00094 -2.4271,-3.25943 0.25849,-0.25849 1.75437,0.87063 3.32418,2.50916 3.65853,3.81868 2.92601,4.43132 -0.89708,0.75027 z M 1026.5,551 c 1.5808,-1.65 3.2054,-3 3.6102,-3 0.4048,0 -0.614,1.35 -2.264,3 -1.65,1.65 -3.2746,3 -3.6102,3 -0.3356,0 0.6832,-1.35 2.264,-3 z m -214.27381,0.42128 c 0.94941,-0.99123 1.94144,-1.58698 2.20452,-1.3239 0.26308,0.26308 -0.5137,1.07408 -1.72619,1.80223 -2.10631,1.26492 -2.12762,1.24361 -0.47833,-0.47833 z M 919.5,546 c -0.33992,-0.55 -0.14148,-1 0.44098,-1 0.58246,0 1.05902,0.45 1.05902,1 0,0.55 -0.19844,1 -0.44098,1 -0.24254,0 -0.7191,-0.45 -1.05902,-1 z m 89.0643,-6.29313 c 0.3755,-0.98622 0.9347,-1.54122 1.2426,-1.23333 0.3079,0.30789 6e-4,1.11479 -0.6828,1.79313 -0.9876,0.98026 -1.1025,0.8654 -0.5598,-0.5598 z M 819,537 c 0,-0.55 0.47656,-1 1.05902,-1 0.58246,0 0.7809,0.45 0.44098,1 -0.33992,0.55 -0.81648,1 -1.05902,1 C 819.19844,538 819,537.55 819,537 Z m 193,-1 c 0.5887,-1.1 1.5743,-2 2.1902,-2 0.6159,0 0.3053,0.9 -0.6902,2 -0.9955,1.1 -1.9811,2 -2.1902,2 -0.2091,0 0.1015,-0.9 0.6902,-2 z m -45.5,-1 c -0.33992,-0.55 -0.14148,-1 0.44098,-1 0.58246,0 1.05902,0.45 1.05902,1 0,0.55 -0.19844,1 -0.44098,1 -0.24254,0 -0.7191,-0.45 -1.05902,-1 z m -231.80308,-4.39313 c -0.4092,-1.04122 -0.5084,-2.12872 -0.22046,-2.41666 0.91206,-0.91206 1.71456,0.58256 1.33239,2.48152 -0.35024,1.74033 -0.40373,1.73721 -1.11193,-0.0649 z m 85.31839,0.20215 c -0.008,-0.93004 0.43469,-1.9691 0.98469,-2.30902 1.2656,-0.78218 1.2656,0.54163 0,2.5 -0.8354,1.29269 -0.97149,1.26629 -0.98469,-0.19098 z M 867.33866,527.5 c 2.58305,-2.475 5.00725,-4.5 5.38711,-4.5 0.37985,0 -1.29674,2.025 -3.72577,4.5 -2.42903,2.475 -4.85323,4.5 -5.38711,4.5 -0.53388,0 1.14272,-2.025 3.72577,-4.5 z M 756,529.94098 c 0,-0.58246 0.45,-0.7809 1,-0.44098 0.55,0.33992 1,0.81648 1,1.05902 0,0.24254 -0.45,0.44098 -1,0.44098 -0.55,0 -1,-0.47656 -1,-1.05902 z M 906.5,528 c -0.33992,-0.55 -0.14148,-1 0.44098,-1 0.58246,0 1.05902,0.45 1.05902,1 0,0.55 -0.19844,1 -0.44098,1 -0.24254,0 -0.7191,-0.45 -1.05902,-1 z m 133.5,-1 c 0,-0.55 0.4766,-1 1.059,-1 0.5825,0 0.7809,0.45 0.441,1 -0.3399,0.55 -0.8165,1 -1.059,1 -0.2426,0 -0.441,-0.45 -0.441,-1 z m -350.43571,-3.29313 c 0.37553,-0.98622 0.93469,-1.54122 1.24258,-1.23333 0.30789,0.30789 6.4e-4,1.11479 -0.68278,1.79313 -0.98762,0.98026 -1.10248,0.8654 -0.5598,-0.5598 z m 249,-0.41374 c -0.54268,-1.4252 -0.42782,-1.54006 0.5598,-0.5598 0.68342,0.67834 0.99067,1.48524 0.68278,1.79313 -0.30789,0.30789 -0.86705,-0.24711 -1.24258,-1.23333 z M 1041,522.11803 c 0,-0.55 0.45,-1.27811 1,-1.61803 0.55,-0.33992 1,-0.16803 1,0.38197 0,0.55 -0.45,1.27811 -1,1.61803 -0.55,0.33992 -1,0.16803 -1,-0.38197 z m -167.1875,-0.80114 c 0.72187,-0.28887 1.58438,-0.25335 1.91667,0.0789 0.33229,0.33229 -0.25834,0.56864 -1.3125,0.52522 -1.16495,-0.048 -1.4019,-0.28494 -0.60417,-0.60416 z m 26.69458,-1.30544 c -0.35034,-0.56686 0.0511,-0.7345 0.94098,-0.39301 1.73242,0.66479 2.04939,1.38156 0.61096,1.38156 -0.51754,0 -1.21592,-0.44485 -1.55194,-0.98855 z m 37.09991,-3.59324 c -0.77986,-2.03227 -0.61318,-8.20068 0.30854,-11.41821 0.45146,-1.57598 0.74189,0.36445 0.78577,5.25 0.0383,4.2625 -0.0557,7.75 -0.20886,7.75 -0.15315,0 -0.55161,-0.7118 -0.88545,-1.58179 z m 22.01655,0.0431 c -0.96498,-2.51469 -0.68031,-3.16355 0.49853,-1.13634 0.58369,1.00375 0.8506,2.03566 0.59313,2.29313 -0.25747,0.25747 -0.74872,-0.26309 -1.09166,-1.15679 z M 1020.5,511 c 0,-3.19496 0.3375,-5.60043 0.75,-5.34549 0.4125,0.25494 0.75,2.66041 0.75,5.34549 0,2.68508 -0.3375,5.09055 -0.75,5.34549 -0.4125,0.25494 -0.75,-2.15053 -0.75,-5.34549 z M 959,506.05902 c 0,-0.51754 0.44485,-1.21592 0.98855,-1.55194 0.56686,-0.35034 0.7345,0.0511 0.39301,0.94098 C 959.71677,507.18048 959,507.49745 959,506.05902 Z M 798.19495,501.5 c 0.0204,-1.65 0.2445,-2.20394 0.49804,-1.23097 0.25354,0.97297 0.23687,2.32297 -0.0371,3 -0.27393,0.67703 -0.48137,-0.11903 -0.46099,-1.76903 z m 243.47175,0.83333 c -0.3667,-0.36666 -0.6667,-1.13166 -0.6667,-1.7 0,-0.6266 0.4658,-0.56756 1.1833,0.15 0.6509,0.65084 0.9509,1.41584 0.6667,1.7 -0.2842,0.28417 -0.8167,0.21667 -1.1833,-0.15 z m -149.64664,-1.8575 c 0.69572,-0.83829 1.47088,-1.31823 1.72258,-1.06653 0.69349,0.6935 -0.71555,2.5907 -1.9241,2.5907 -0.6631,0 -0.58723,-0.57378 0.20152,-1.52417 z M 1019.5,501 c -0.3399,-0.55 -0.1415,-1 0.441,-1 0.5824,0 1.059,0.45 1.059,1 0,0.55 -0.1984,1 -0.441,1 -0.2425,0 -0.7191,-0.45 -1.059,-1 z M 868,499.53518 c 0,-0.25565 1.0125,-1.00432 2.25,-1.66372 2.04022,-1.08712 2.12204,-1.04378 0.87756,0.46482 C 869.84973,499.8853 868,500.59437 868,499.53518 Z m 172,-3.5942 c 0,-0.58246 0.45,-0.7809 1,-0.44098 0.55,0.33992 1,0.81648 1,1.05902 0,0.24254 -0.45,0.44098 -1,0.44098 -0.55,0 -1,-0.47656 -1,-1.05902 z m -144,-0.37061 c 0,-0.275 0.9,-0.98167 2,-1.57037 1.1,-0.5887 2,-0.84537 2,-0.57037 0,0.275 -0.9,0.98167 -2,1.57037 -1.1,0.5887 -2,0.84537 -2,0.57037 z M 670,492 c 0,-0.55 0.47656,-1 1.05902,-1 0.58246,0 0.7809,0.45 0.44098,1 -0.33992,0.55 -0.81648,1 -1.05902,1 C 670.19844,493 670,492.55 670,492 Z m 204.73333,-0.12409 c 0.67834,-0.68342 1.48524,-0.99067 1.79313,-0.68278 0.30789,0.30789 -0.24711,0.86705 -1.23333,1.24258 -1.4252,0.54268 -1.54006,0.42782 -0.5598,-0.5598 z M 671,489 c 0,-0.55 0.47656,-1 1.05902,-1 0.58246,0 0.7809,0.45 0.44098,1 -0.33992,0.55 -0.81648,1 -1.05902,1 C 671.19844,490 671,489.55 671,489 Z m 232.02006,-1.52417 c 0.69572,-0.83829 1.47088,-1.31823 1.72258,-1.06653 0.69349,0.6935 -0.71555,2.5907 -1.9241,2.5907 -0.6631,0 -0.58723,-0.57378 0.20152,-1.52417 z M 1011.2781,485.75 c -2.3981,-3.10085 -2.3671,-4.03725 0.061,-1.82569 1.4637,1.33338 2.6613,2.57088 2.6613,2.75 0,0.82656 -1.8549,0.19665 -2.7219,-0.92431 z m -131.19477,-0.033 c 0.22917,-0.15563 1.31667,-0.94313 2.41667,-1.75 1.85001,-1.35701 1.89707,-1.33579 0.62756,0.28297 -0.75485,0.9625 -1.84235,1.75 -2.41667,1.75 -0.57432,0 -0.85672,-0.12734 -0.62756,-0.28297 z m -203.62445,-2.78356 c -0.36253,-0.58659 -0.44468,-1.281 -0.18255,-1.54313 0.26212,-0.26213 0.74306,0.21781 1.06875,1.06653 0.67618,1.76211 0.0998,2.07206 -0.8862,0.4766 z M 907,482.62244 c 0,-0.20765 0.7875,-0.99515 1.75,-1.75 1.58606,-1.24387 1.62143,-1.2085 0.37756,0.37756 C 907.82119,482.91575 907,483.44548 907,482.62244 Z m 65,-0.56342 c 0,-0.51754 0.44485,-1.21592 0.98855,-1.55194 0.56686,-0.35034 0.7345,0.0511 0.39301,0.94098 C 972.71677,483.18048 972,483.49745 972,482.05902 Z m -86,-3.48865 c 0,-0.275 0.9,-0.98167 2,-1.57037 1.1,-0.5887 2,-0.84537 2,-0.57037 0,0.275 -0.9,0.98167 -2,1.57037 -1.1,0.5887 -2,0.84537 -2,0.57037 z M 982,477 c 0,-0.55 0.47656,-1 1.05902,-1 0.58246,0 0.7809,0.45 0.44098,1 -0.33992,0.55 -0.81648,1 -1.05902,1 C 982.19844,478 982,477.55 982,477 Z m 14.5,0 c -0.33992,-0.55 -0.14148,-1 0.44098,-1 0.58246,0 1.05902,0.45 1.05902,1 0,0.55 -0.19844,1 -0.44098,1 -0.24254,0 -0.7191,-0.45 -1.05902,-1 z m 34,-1 c -0.3399,-0.55 -0.168,-1 0.382,-1 0.55,0 1.2781,0.45 1.618,1 0.3399,0.55 0.168,1 -0.382,1 -0.55,0 -1.2781,-0.45 -1.618,-1 z m 102.5789,-0.58333 c 0.048,-1.16495 0.285,-1.4019 0.6042,-0.60417 0.2889,0.72187 0.2534,1.58438 -0.079,1.91667 -0.3323,0.33229 -0.5687,-0.25834 -0.5253,-1.3125 z M 913,475.59106 c 0,-0.19039 0.675,-0.90637 1.5,-1.59106 0.86459,-0.71755 1.5,-0.81474 1.5,-0.22943 0,0.5585 -0.675,1.27447 -1.5,1.59106 -0.825,0.31658 -1.5,0.41982 -1.5,0.22943 z m 35,0.0159 c 0,-0.21616 0.69837,-0.661 1.55194,-0.98855 0.88992,-0.34149 1.29132,-0.17385 0.94098,0.39301 C 949.90566,475.96166 948,476.4169 948,475.60699 Z m -56,-4.03662 c 0,-0.275 0.9,-0.98167 2,-1.57037 1.1,-0.5887 2,-0.84537 2,-0.57037 0,0.275 -0.9,0.98167 -2,1.57037 -1.1,0.5887 -2,0.84537 -2,0.57037 z M 1133.1949,469.5 c 0.02,-1.65 0.2445,-2.20394 0.4981,-1.23097 0.2535,0.97297 0.2369,2.32297 -0.037,3 -0.2739,0.67703 -0.4813,-0.11903 -0.461,-1.76903 z m -335.11595,-1.08333 c 0.048,-1.16495 0.28494,-1.4019 0.60416,-0.60417 0.28887,0.72187 0.25335,1.58438 -0.0789,1.91667 -0.33229,0.33229 -0.56864,-0.25834 -0.52522,-1.3125 z m 121.65438,-0.54076 c 0.67834,-0.68342 1.48524,-0.99067 1.79313,-0.68278 0.30789,0.30789 -0.24711,0.86705 -1.23333,1.24258 -1.4252,0.54268 -1.54006,0.42782 -0.5598,-0.5598 z M 956,468 c 0,-0.55 0.47656,-1 1.05902,-1 0.58246,0 0.7809,0.45 0.44098,1 -0.33992,0.55 -0.81648,1 -1.05902,1 C 956.19844,469 956,468.55 956,468 Z m 63.4589,-2.06653 c -0.3626,-0.58659 -0.4447,-1.281 -0.1826,-1.54313 0.2622,-0.26213 0.7431,0.21781 1.0688,1.06653 0.6762,1.76211 0.1,2.07206 -0.8862,0.4766 z M 1133.1949,463.5 c 0.02,-1.65 0.2445,-2.20394 0.4981,-1.23097 0.2535,0.97297 0.2369,2.32297 -0.037,3 -0.2739,0.67703 -0.4813,-0.11903 -0.461,-1.76903 z M 899,464.10699 c 0,-0.49116 0.73865,-1.17646 1.64144,-1.52289 1.37248,-0.52667 1.43434,-0.38034 0.37756,0.89301 -1.44013,1.73524 -2.019,1.91584 -2.019,0.62988 z m 11.78919,-5.8484 c 3.45905,-0.19583 8.85905,-0.19422 12,0.004 3.14094,0.19781 0.31081,0.35803 -6.28919,0.35606 -6.6,-0.002 -9.16987,-0.16382 -5.71081,-0.35965 z m 76.86413,-1.35232 c 1.92983,-0.55897 4.06383,-0.54857 5.5,0.0268 1.88337,0.75454 1.26081,0.93487 -3.15332,0.91336 -4.97393,-0.0242 -5.19839,-0.11417 -2.34668,-0.94016 z"
         id="path3" /><path
         style="fill:#000014"
         d="m 447.26903,669.30701 c 0.97297,-0.25354 2.32297,-0.23687 3,0.0371 0.67703,0.27393 -0.11903,0.48137 -1.76903,0.46099 -1.65,-0.0204 -2.20394,-0.2445 -1.23097,-0.49804 z m 7,0 c 0.97297,-0.25354 2.32297,-0.23687 3,0.0371 0.67703,0.27393 -0.11903,0.48137 -1.76903,0.46099 -1.65,-0.0204 -2.20394,-0.2445 -1.23097,-0.49804 z M 440.75,668.33772 c 0.6875,-0.27741 1.8125,-0.27741 2.5,0 0.6875,0.27741 0.125,0.50439 -1.25,0.50439 -1.375,0 -1.9375,-0.22698 -1.25,-0.50439 z m 18.33333,0.28946 C 460.11238,667.70641 466,665.00077 466,665.44864 466,666.02462 460.45618,669 459.38299,669 c -0.39398,0 -0.52882,-0.16777 -0.29966,-0.37282 z M 467,664.57037 c 0,-0.275 0.9,-0.98167 2,-1.57037 1.1,-0.5887 2,-0.84537 2,-0.57037 0,0.275 -0.9,0.98167 -2,1.57037 -1.1,0.5887 -2,0.84537 -2,0.57037 z m 5,-3 c 0,-0.275 0.9,-0.98167 2,-1.57037 1.1,-0.5887 2,-0.84537 2,-0.57037 0,0.275 -0.9,0.98167 -2,1.57037 -1.1,0.5887 -2,0.84537 -2,0.57037 z M 414,659 c -0.825,-0.53316 -1.05,-0.96937 -0.5,-0.96937 0.55,0 1.675,0.43621 2.5,0.96937 0.825,0.53316 1.05,0.96937 0.5,0.96937 -0.55,0 -1.675,-0.43621 -2.5,-0.96937 z m 63,-0.42963 c 0,-0.275 0.9,-0.98167 2,-1.57037 1.1,-0.5887 2,-0.84537 2,-0.57037 0,0.275 -0.9,0.98167 -2,1.57037 -1.1,0.5887 -2,0.84537 -2,0.57037 z M 393,649.5 c -1.375,-0.78602 -2.05,-1.42913 -1.5,-1.42913 0.55,0 2.125,0.64311 3.5,1.42913 1.375,0.78602 2.05,1.42913 1.5,1.42913 -0.55,0 -2.125,-0.64311 -3.5,-1.42913 z m -66.37084,-5.29101 c -0.26888,-0.43506 1.05457,-0.61082 2.94099,-0.39059 1.88642,0.22022 3.42985,0.57618 3.42985,0.79101 0,0.75258 -5.88692,0.38257 -6.37084,-0.40042 z M 380,643.5 c -1.375,-0.78602 -2.05,-1.42913 -1.5,-1.42913 0.55,0 2.125,0.64311 3.5,1.42913 1.375,0.78602 2.05,1.42913 1.5,1.42913 -0.55,0 -2.125,-0.64311 -3.5,-1.42913 z M 337,642 c 0.825,-0.53316 1.95,-0.96937 2.5,-0.96937 0.55,0 0.325,0.43621 -0.5,0.96937 -0.825,0.53316 -1.95,0.96937 -2.5,0.96937 -0.55,0 -0.325,-0.43621 0.5,-0.96937 z m 5,-2 c 0.825,-0.53316 1.95,-0.96937 2.5,-0.96937 0.55,0 0.325,0.43621 -0.5,0.96937 -0.825,0.53316 -1.95,0.96937 -2.5,0.96937 -0.55,0 -0.325,-0.43621 0.5,-0.96937 z m 164,-0.36381 c 0,-0.275 1.35,-1.46129 3,-2.63619 1.65,-1.1749 3,-1.91119 3,-1.63619 0,0.275 -1.35,1.46129 -3,2.63619 -1.65,1.1749 -3,1.91119 -3,1.63619 z m -139.1875,-1.3193 c 0.72187,-0.28887 1.58438,-0.25335 1.91667,0.0789 0.33229,0.33229 -0.25834,0.56864 -1.3125,0.52522 -1.16495,-0.048 -1.4019,-0.28494 -0.60417,-0.60416 z m -14.05084,-1.02415 c 1.24391,-0.23919 3.04391,-0.23011 4,0.0202 0.95609,0.25029 -0.0617,0.446 -2.26166,0.4349 -2.2,-0.0111 -2.98225,-0.21589 -1.73834,-0.45508 z m 7.48834,0.0179 c 0.9625,-0.25152 2.5375,-0.25152 3.5,0 0.9625,0.25153 0.175,0.45733 -1.75,0.45733 -1.925,0 -2.7125,-0.2058 -1.75,-0.45733 z M 516,632.62244 c 0,-0.20765 0.7875,-0.99515 1.75,-1.75 1.58606,-1.24387 1.62143,-1.2085 0.37756,0.37756 C 516.82119,632.91575 516,633.44548 516,632.62244 Z m -62.75,-1.31177 c 0.9625,-0.25152 2.5375,-0.25152 3.5,0 0.9625,0.25153 0.175,0.45733 -1.75,0.45733 -1.925,0 -2.7125,-0.2058 -1.75,-0.45733 z m 28.01903,-0.004 c 0.97297,-0.25354 2.32297,-0.23687 3,0.0371 0.67703,0.27393 -0.11903,0.48137 -1.76903,0.46099 -1.65,-0.0204 -2.20394,-0.2445 -1.23097,-0.49804 z M 319.62354,629.461 c -0.96498,-2.51469 -0.68031,-3.16355 0.49853,-1.13634 0.58369,1.00375 0.8506,2.03566 0.59313,2.29313 -0.25747,0.25747 -0.74872,-0.26309 -1.09166,-1.15679 z M 443.75,630.33772 c 0.6875,-0.27741 1.8125,-0.27741 2.5,0 0.6875,0.27741 0.125,0.50439 -1.25,0.50439 -1.375,0 -1.9375,-0.22698 -1.25,-0.50439 z m 44,0 c 0.6875,-0.27741 1.8125,-0.27741 2.5,0 0.6875,0.27741 0.125,0.50439 -1.25,0.50439 -1.375,0 -1.9375,-0.22698 -1.25,-0.50439 z m -51,-1 c 0.6875,-0.27741 1.8125,-0.27741 2.5,0 0.6875,0.27741 0.125,0.50439 -1.25,0.50439 -1.375,0 -1.9375,-0.22698 -1.25,-0.50439 z m 56.0625,-0.0208 c 0.72187,-0.28887 1.58438,-0.25335 1.91667,0.0789 0.33229,0.33229 -0.25834,0.56864 -1.3125,0.52522 -1.16495,-0.048 -1.4019,-0.28494 -0.60417,-0.60416 z M 520,629.63619 c 0,-0.275 1.35,-1.46129 3,-2.63619 1.65,-1.1749 3,-1.91119 3,-1.63619 0,0.275 -1.35,1.46129 -3,2.63619 -1.65,1.1749 -3,1.91119 -3,1.63619 z m -90.25,-1.29847 c 0.6875,-0.27741 1.8125,-0.27741 2.5,0 0.6875,0.27741 0.125,0.50439 -1.25,0.50439 -1.375,0 -1.9375,-0.22698 -1.25,-0.50439 z m -4.9375,-1.02083 c 0.72187,-0.28887 1.58438,-0.25335 1.91667,0.0789 0.33229,0.33229 -0.25834,0.56864 -1.3125,0.52522 -1.16495,-0.048 -1.4019,-0.28494 -0.60417,-0.60416 z m -5,-1 c 0.72187,-0.28887 1.58438,-0.25335 1.91667,0.0789 0.33229,0.33229 -0.25834,0.56864 -1.3125,0.52522 -1.16495,-0.048 -1.4019,-0.28494 -0.60417,-0.60416 z m -102.18896,-1.85555 c -0.96498,-2.51469 -0.68031,-3.16355 0.49853,-1.13634 0.58369,1.00375 0.8506,2.03566 0.59313,2.29313 -0.25747,0.25747 -0.74872,-0.26309 -1.09166,-1.15679 z m 97.18896,0.85555 c 0.72187,-0.28887 1.58438,-0.25335 1.91667,0.0789 0.33229,0.33229 -0.25834,0.56864 -1.3125,0.52522 -1.16495,-0.048 -1.4019,-0.28494 -0.60417,-0.60416 z m -4,-1 c 0.72187,-0.28887 1.58438,-0.25335 1.91667,0.0789 0.33229,0.33229 -0.25834,0.56864 -1.3125,0.52522 -1.16495,-0.048 -1.4019,-0.28494 -0.60417,-0.60416 z M 527,624.66806 c 0,-0.275 1.8,-1.92563 4,-3.66806 2.2,-1.74243 4,-2.94306 4,-2.66806 0,0.275 -1.8,1.92563 -4,3.66806 -2.2,1.74243 -4,2.94306 -4,2.66806 z m -120.1875,-1.35117 c 0.72187,-0.28887 1.58438,-0.25335 1.91667,0.0789 0.33229,0.33229 -0.25834,0.56864 -1.3125,0.52522 -1.16495,-0.048 -1.4019,-0.28494 -0.60417,-0.60416 z m 102.67975,-2.32052 c 4.74138,-5.54019 4.80681,-5.60165 3.72198,-3.49637 -0.56682,1.1 -2.30941,3.12336 -3.87241,4.49637 L 506.5,624.49273 Z m -44.73059,0.29637 c 1.24391,-0.23919 3.04391,-0.23011 4,0.0202 0.95609,0.25029 -0.0617,0.446 -2.26166,0.4349 -2.2,-0.0111 -2.98225,-0.21589 -1.73834,-0.45508 z M 450.25,620.31067 c 0.9625,-0.25152 2.5375,-0.25152 3.5,0 0.9625,0.25153 0.175,0.45733 -1.75,0.45733 -1.925,0 -2.7125,-0.2058 -1.75,-0.45733 z m 28,0 c 0.9625,-0.25152 2.5375,-0.25152 3.5,0 0.9625,0.25153 0.175,0.45733 -1.75,0.45733 -1.925,0 -2.7125,-0.2058 -1.75,-0.45733 z m -37.5,-0.97295 c 0.6875,-0.27741 1.8125,-0.27741 2.5,0 0.6875,0.27741 0.125,0.50439 -1.25,0.50439 -1.375,0 -1.9375,-0.22698 -1.25,-0.50439 z m 45,0 c 0.6875,-0.27741 1.8125,-0.27741 2.5,0 0.6875,0.27741 0.125,0.50439 -1.25,0.50439 -1.375,0 -1.9375,-0.22698 -1.25,-0.50439 z m -51.48097,-1.03071 c 0.97297,-0.25354 2.32297,-0.23687 3,0.0371 0.67703,0.27393 -0.11903,0.48137 -1.76903,0.46099 -1.65,-0.0204 -2.20394,-0.2445 -1.23097,-0.49804 z m -5.45653,-0.99012 c 0.72187,-0.28887 1.58438,-0.25335 1.91667,0.0789 0.33229,0.33229 -0.25834,0.56864 -1.3125,0.52522 -1.16495,-0.048 -1.4019,-0.28494 -0.60417,-0.60416 z M 536,617.62244 c 0,-0.20765 0.7875,-0.99515 1.75,-1.75 1.58606,-1.24387 1.62143,-1.2085 0.37756,0.37756 C 536.82119,617.91575 536,618.44548 536,617.62244 Z m -113.1875,-1.30555 c 0.72187,-0.28887 1.58438,-0.25335 1.91667,0.0789 0.33229,0.33229 -0.25834,0.56864 -1.3125,0.52522 -1.16495,-0.048 -1.4019,-0.28494 -0.60417,-0.60416 z M 496,616.60699 c 0,-0.21616 0.69837,-0.661 1.55194,-0.98855 0.88992,-0.34149 1.29132,-0.17385 0.94098,0.39301 C 497.90566,616.96166 496,617.4169 496,616.60699 Z m -78.25,-1.26927 c 0.6875,-0.27741 1.8125,-0.27741 2.5,0 0.6875,0.27741 0.125,0.50439 -1.25,0.50439 -1.375,0 -1.9375,-0.22698 -1.25,-0.50439 z m -4.9375,-1.02083 c 0.72187,-0.28887 1.58438,-0.25335 1.91667,0.0789 0.33229,0.33229 -0.25834,0.56864 -1.3125,0.52522 -1.16495,-0.048 -1.4019,-0.28494 -0.60417,-0.60416 z m 88.28789,-1.02141 c 0.72815,-1.21249 1.53915,-1.98927 1.80223,-1.72619 0.26308,0.26308 -0.33267,1.25511 -1.3239,2.20452 -1.72194,1.64929 -1.74325,1.62798 -0.47833,-0.47833 z M 540,614.66806 c 0,-0.275 1.8,-1.92563 4,-3.66806 2.2,-1.74243 4,-2.94306 4,-2.66806 0,0.275 -1.8,1.92563 -4,3.66806 -2.2,1.74243 -4,2.94306 -4,2.66806 z m -131.1875,-1.35117 c 0.72187,-0.28887 1.58438,-0.25335 1.91667,0.0789 0.33229,0.33229 -0.25834,0.56864 -1.3125,0.52522 -1.16495,-0.048 -1.4019,-0.28494 -0.60417,-0.60416 z m 105.26645,-0.90022 c 0.048,-1.16495 0.28494,-1.4019 0.60416,-0.60417 0.28887,0.72187 0.25335,1.58438 -0.0789,1.91667 -0.33229,0.33229 -0.56864,-0.25834 -0.52522,-1.3125 z m -11,-4 c 0.048,-1.16495 0.28494,-1.4019 0.60416,-0.60417 0.28887,0.72187 0.25335,1.58438 -0.0789,1.91667 -0.33229,0.33229 -0.56864,-0.25834 -0.52522,-1.3125 z M 550.5,606 c 0.99549,-1.1 2.03498,-2 2.30998,-2 0.275,0 -0.31449,0.9 -1.30998,2 -0.99549,1.1 -2.03498,2 -2.30998,2 -0.275,0 0.31449,-0.9 1.30998,-2 z m -48.93571,-1.70687 c -0.54268,-1.4252 -0.42782,-1.54006 0.5598,-0.5598 0.68342,0.67834 0.99067,1.48524 0.68278,1.79313 -0.30789,0.30789 -0.86705,-0.24711 -1.24258,-1.23333 z M 554,603.70449 c 0,-0.25496 2.11653,-2.1979 4.7034,-4.31765 2.58688,-2.11975 4.38063,-3.33183 3.98613,-2.6935 C 561.84892,598.05347 554,604.38638 554,603.70449 Z M 498.87244,600.25 c -1.24387,-1.58606 -1.2085,-1.62143 0.37756,-0.37756 0.9625,0.75485 1.75,1.54235 1.75,1.75 0,0.82304 -0.82119,0.29331 -2.12756,-1.37244 z m 12.86312,-1.50632 -1.76444,-3.24368 2.01444,2.36078 c 1.71413,2.00885 2.63029,4.1548 1.76444,4.1329 -0.1375,-0.003 -1.044,-1.46598 -2.01444,-3.25 z m -23.92306,-3.42679 c 0.72187,-0.28887 1.58438,-0.25335 1.91667,0.0789 0.33229,0.33229 -0.25834,0.56864 -1.3125,0.52522 -1.16495,-0.048 -1.4019,-0.28494 -0.60417,-0.60416 z M 475.75,594.2766 c 1.7875,-0.22182 4.7125,-0.22182 6.5,0 1.7875,0.22183 0.325,0.40333 -3.25,0.40333 -3.575,0 -5.0375,-0.1815 -3.25,-0.40333 z m 32.82003,-0.16329 c -0.30141,-0.48768 0.01,-1.32798 0.69098,-1.86732 1.89584,-1.5005 5.73899,-3.38013 5.73899,-2.80685 0,0.28022 -1.36471,1.21522 -3.0327,2.07777 -1.66798,0.86255 -2.76642,1.9991 -2.44098,2.52568 0.32544,0.52657 0.36671,0.95741 0.0917,0.95741 -0.275,0 -0.7466,-0.39901 -1.048,-0.88669 z M 567,592.5 c 1.29175,-1.375 2.57363,-2.5 2.84863,-2.5 0.275,0 -0.55688,1.125 -1.84863,2.5 -1.29175,1.375 -2.57363,2.5 -2.84863,2.5 -0.275,0 0.55688,-1.125 1.84863,-2.5 z M 308.5,592 c 0.99549,-1.1 2.03498,-2 2.30998,-2 0.275,0 -0.31449,0.9 -1.30998,2 -0.99549,1.1 -2.03498,2 -2.30998,2 -0.275,0 0.31449,-0.9 1.30998,-2 z m 153.75,1.31067 c 0.9625,-0.25152 2.5375,-0.25152 3.5,0 0.9625,0.25153 0.175,0.45733 -1.75,0.45733 -1.925,0 -2.7125,-0.2058 -1.75,-0.45733 z m -7.5,-0.97295 c 0.6875,-0.27741 1.8125,-0.27741 2.5,0 0.6875,0.27741 0.125,0.50439 -1.25,0.50439 -1.375,0 -1.9375,-0.22698 -1.25,-0.50439 z m -3.9375,-1.02083 c 0.72187,-0.28887 1.58438,-0.25335 1.91667,0.0789 0.33229,0.33229 -0.25834,0.56864 -1.3125,0.52522 -1.16495,-0.048 -1.4019,-0.28494 -0.60417,-0.60416 z m -4,-1 c 0.72187,-0.28887 1.58438,-0.25335 1.91667,0.0789 0.33229,0.33229 -0.25834,0.56864 -1.3125,0.52522 -1.16495,-0.048 -1.4019,-0.28494 -0.60417,-0.60416 z M 442,589 c -0.825,-0.53316 -1.05,-0.96937 -0.5,-0.96937 0.55,0 1.675,0.43621 2.5,0.96937 0.825,0.53316 1.05,0.96937 0.5,0.96937 -0.55,0 -1.675,-0.43621 -2.5,-0.96937 z m -129,-0.37756 c 0,-0.20765 0.7875,-0.99515 1.75,-1.75 1.58606,-1.24387 1.62143,-1.2085 0.37756,0.37756 C 313.82119,588.91575 313,589.44548 313,588.62244 Z M 434,585.5 c -1.375,-0.78602 -2.05,-1.42913 -1.5,-1.42913 0.55,0 2.125,0.64311 3.5,1.42913 1.375,0.78602 2.05,1.42913 1.5,1.42913 -0.55,0 -2.125,-0.64311 -3.5,-1.42913 z m -116.08224,-0.86345 c 1.3317,-1.63978 5.08224,-4.1192 5.08224,-3.35979 0,0.19092 -1.4625,1.41777 -3.25,2.72633 -2.0111,1.47225 -2.70955,1.71373 -1.83224,0.63346 z M 574,585.62244 c 0,-0.20765 0.7875,-0.99515 1.75,-1.75 1.58606,-1.24387 1.62143,-1.2085 0.37756,0.37756 C 574.82119,585.91575 574,586.44548 574,585.62244 Z M 428,582.5 c -1.375,-0.78602 -2.02351,-1.44508 -1.44113,-1.46456 0.58238,-0.0195 1.93238,0.62525 3,1.43276 2.46898,1.86744 1.68038,1.88353 -1.55887,0.0318 z m 100,-0.92963 c 0,-0.275 0.9,-0.98167 2,-1.57037 1.1,-0.5887 2,-0.84537 2,-0.57037 0,0.275 -0.9,0.98167 -2,1.57037 -1.1,0.5887 -2,0.84537 -2,0.57037 z m -201,-3 c 0,-0.275 0.9,-0.98167 2,-1.57037 1.1,-0.5887 2,-0.84537 2,-0.57037 0,0.275 -0.9,0.98167 -2,1.57037 -1.1,0.5887 -2,0.84537 -2,0.57037 z m 208,-1 c 0,-0.275 0.9,-0.98167 2,-1.57037 1.1,-0.5887 2,-0.84537 2,-0.57037 0,0.275 -0.9,0.98167 -2,1.57037 -1.1,0.5887 -2,0.84537 -2,0.57037 z m 42.07895,-3.1537 c 0.048,-1.16495 0.28494,-1.4019 0.60416,-0.60417 0.28887,0.72187 0.25335,1.58438 -0.0789,1.91667 -0.33229,0.33229 -0.56864,-0.25834 -0.52522,-1.3125 z M 542,573.50506 c 0,-0.67013 12.12196,-6.71644 12.56907,-6.26933 0.20167,0.20168 -2.54386,1.80194 -6.10119,3.55614 C 544.91054,572.54607 542,573.76701 542,573.50506 Z M 341,571 c 0.825,-0.53316 1.95,-0.96937 2.5,-0.96937 0.55,0 0.325,0.43621 -0.5,0.96937 -0.825,0.53316 -1.95,0.96937 -2.5,0.96937 -0.55,0 -0.325,-0.43621 0.5,-0.96937 z m 61,-1 c -0.825,-0.53316 -1.05,-0.96937 -0.5,-0.96937 0.55,0 1.675,0.43621 2.5,0.96937 0.825,0.53316 1.05,0.96937 0.5,0.96937 -0.55,0 -1.675,-0.43621 -2.5,-0.96937 z m 171.87244,-1.75 c -1.24387,-1.58606 -1.2085,-1.62143 0.37756,-0.37756 0.9625,0.75485 1.75,1.54235 1.75,1.75 0,0.82304 -0.82119,0.29331 -2.12756,-1.37244 z M 397,568 c -0.825,-0.53316 -1.05,-0.96937 -0.5,-0.96937 0.55,0 1.675,0.43621 2.5,0.96937 0.825,0.53316 1.05,0.96937 0.5,0.96937 -0.55,0 -1.675,-0.43621 -2.5,-0.96937 z m -41.1875,-1.68311 c 0.72187,-0.28887 1.58438,-0.25335 1.91667,0.0789 0.33229,0.33229 -0.25834,0.56864 -1.3125,0.52522 -1.16495,-0.048 -1.4019,-0.28494 -0.60417,-0.60416 z m 37,0 c 0.72187,-0.28887 1.58438,-0.25335 1.91667,0.0789 0.33229,0.33229 -0.25834,0.56864 -1.3125,0.52522 -1.16495,-0.048 -1.4019,-0.28494 -0.60417,-0.60416 z m -33,-1 c 0.72187,-0.28887 1.58438,-0.25335 1.91667,0.0789 0.33229,0.33229 -0.25834,0.56864 -1.3125,0.52522 -1.16495,-0.048 -1.4019,-0.28494 -0.60417,-0.60416 z m 29,0 c 0.72187,-0.28887 1.58438,-0.25335 1.91667,0.0789 0.33229,0.33229 -0.25834,0.56864 -1.3125,0.52522 -1.16495,-0.048 -1.4019,-0.28494 -0.60417,-0.60416 z m 383.9375,-0.0491 c 2.3375,-0.21053 6.1625,-0.21053 8.5,0 2.3375,0.21054 0.425,0.3828 -4.25,0.3828 -4.675,0 -6.5875,-0.17226 -4.25,-0.3828 z m 214.5,0.004 c 2.0625,-0.21574 5.4375,-0.21574 7.5,0 2.0625,0.21575 0.375,0.39226 -3.75,0.39226 -4.125,0 -5.8125,-0.17651 -3.75,-0.39226 z m -622,-0.96086 c 0.9625,-0.25152 2.5375,-0.25152 3.5,0 0.9625,0.25153 0.175,0.45733 -1.75,0.45733 -1.925,0 -2.7125,-0.2058 -1.75,-0.45733 z m 17.01903,-0.004 c 0.97297,-0.25354 2.32297,-0.23687 3,0.0371 0.67703,0.27393 -0.11903,0.48137 -1.76903,0.46099 -1.65,-0.0204 -2.20394,-0.2445 -1.23097,-0.49804 z m 382.54347,0.01 c 0.72187,-0.28887 1.58438,-0.25335 1.91667,0.0789 0.33229,0.33229 -0.25834,0.56864 -1.3125,0.52522 -1.16495,-0.048 -1.4019,-0.28494 -0.60417,-0.60416 z m 25,0 c 0.72187,-0.28887 1.58438,-0.25335 1.91667,0.0789 0.33229,0.33229 -0.25834,0.56864 -1.3125,0.52522 -1.16495,-0.048 -1.4019,-0.28494 -0.60417,-0.60416 z m 189,0 c 0.72187,-0.28887 1.58438,-0.25335 1.91667,0.0789 0.33229,0.33229 -0.25834,0.56864 -1.3125,0.52522 -1.16495,-0.048 -1.4019,-0.28494 -0.60417,-0.60416 z M 624,563.25 c 0,-0.4125 5.4,-0.75 12,-0.75 6.6,0 12,0.3375 12,0.75 0,0.4125 -5.4,0.75 -12,0.75 -6.6,0 -12,-0.3375 -12,-0.75 z m 78.66667,0.0833 c -0.36667,-0.36666 -0.65978,-1.15416 -0.65136,-1.75 0.009,-0.66706 0.31232,-0.61592 0.78827,0.1331 0.51656,0.81293 4.74082,1.3221 12.73469,1.53497 l 11.96173,0.31853 -12.08333,0.21504 c -6.64584,0.11827 -12.38334,-0.085 -12.75,-0.45164 z m 91.14583,-0.0164 c 0.72187,-0.28887 1.58438,-0.25335 1.91667,0.0789 0.33229,0.33229 -0.25834,0.56864 -1.3125,0.52522 -1.16495,-0.048 -1.4019,-0.28494 -0.60417,-0.60416 z m 54.47401,-0.057 c 3.18258,-0.19905 8.13258,-0.1972 11,0.004 2.86742,0.20131 0.26349,0.36417 -5.78651,0.36191 -6.05,-0.002 -8.39607,-0.16696 -5.21349,-0.36601 z m 62.96349,-10e-4 c 3.7125,-0.19241 9.7875,-0.19241 13.5,0 3.7125,0.19241 0.675,0.34983 -6.75,0.34983 -7.425,0 -10.4625,-0.15742 -6.75,-0.34983 z m 20.3341,-0.89989 c -0.52667,-1.37248 -0.38034,-1.43434 0.89301,-0.37756 1.73524,1.44013 1.91584,2.019 0.62988,2.019 -0.49116,0 -1.17646,-0.73865 -1.52289,-1.64144 z m 43.2284,0.95833 c 0.72187,-0.28887 1.58438,-0.25335 1.91667,0.0789 0.33229,0.33229 -0.25834,0.56864 -1.3125,0.52522 -1.16495,-0.048 -1.4019,-0.28494 -0.60417,-0.60416 z M 1082.239,520.75 l 0.239,-43.25 0.2717,42.75 0.2718,42.75 h 9.9784 9.9784 l 0.272,-42.25 0.272,-42.25 0.2388,42.75 L 1104,564 h -11 -11 z m 75.5502,42.50859 c 3.459,-0.19583 8.859,-0.19422 12,0.004 3.1409,0.19781 0.3108,0.35803 -6.2892,0.35606 -6.6,-0.002 -9.1699,-0.16382 -5.7108,-0.35965 z M 754.75,561.42803 c -3.87722,-2.10343 -3.43809,-2.82933 0.5,-0.82653 3.76952,1.91707 4.43665,2.41393 3.16667,2.35846 -0.50417,-0.022 -2.15417,-0.71139 -3.66667,-1.53193 z M 798,562 c 0.825,-0.53316 1.95,-0.96937 2.5,-0.96937 0.55,0 0.325,0.43621 -0.5,0.96937 -0.825,0.53316 -1.95,0.96937 -2.5,0.96937 -0.55,0 -0.325,-0.43621 0.5,-0.96937 z m 65.40249,-15 c 0,-8.525 0.15337,-12.0125 0.34082,-7.75 0.18745,4.2625 0.18745,11.2375 0,15.5 -0.18745,4.2625 -0.34082,0.775 -0.34082,-7.75 z m 147.68081,14.63545 c 0.2292,-0.2005 1.5417,-0.90032 2.9167,-1.55516 2.3573,-1.12265 2.3892,-1.10183 0.5589,0.36454 -1.593,1.27626 -4.8479,2.39128 -3.4756,1.19062 z M 802,560.65019 c 0,-0.23109 1.18041,-1.1936 2.62312,-2.13891 1.44272,-0.9453 2.31766,-1.22448 1.94431,-0.62038 C 805.85397,559.04529 802,561.37357 802,560.65019 Z m 125.43726,-4.32134 c -1.54007,-2.01913 -2.28943,-3.35552 -1.66525,-2.96976 1.28022,0.79122 5.60943,6.64091 4.91477,6.64091 -0.24717,0 -1.70946,-1.65202 -3.24952,-3.67115 z M 744.94617,554.25 741.5,550.5 l 3.75,3.44617 c 3.49042,3.20761 4.20979,4.05383 3.44617,4.05383 -0.16711,0 -1.85461,-1.6875 -3.75,-3.75 z M 808,556.68709 c 0,-0.1721 1.4625,-1.6346 3.25,-3.25 l 3.25,-2.93709 -2.93709,3.25 C 808.82513,556.77946 808,557.45965 808,556.68709 Z m 213,-0.0647 c 0,-0.20765 0.7875,-0.99515 1.75,-1.75 1.5861,-1.24387 1.6214,-1.2085 0.3776,0.37756 -1.3064,1.66575 -2.1276,2.19548 -2.1276,1.37244 z M 956.87244,554.25 c -1.24387,-1.58606 -1.2085,-1.62143 0.37756,-0.37756 0.9625,0.75485 1.75,1.54235 1.75,1.75 0,0.82304 -0.82119,0.29331 -2.12756,-1.37244 z m -4,-3 c -1.24387,-1.58606 -1.2085,-1.62143 0.37756,-0.37756 0.9625,0.75485 1.75,1.54235 1.75,1.75 0,0.82304 -0.82119,0.29331 -2.12756,-1.37244 z M 1027.5,551 c 0.9955,-1.1 2.035,-2 2.31,-2 0.275,0 -0.3145,0.9 -1.31,2 -0.9955,1.1 -2.035,2 -2.31,2 -0.275,0 0.3145,-0.9 1.31,-2 z m -399.46937,0.5 c 0,-0.55 0.43621,-1.675 0.96937,-2.5 0.53316,-0.825 0.96937,-1.05 0.96937,-0.5 0,0.55 -0.43621,1.675 -0.96937,2.5 -0.53316,0.825 -0.96937,1.05 -0.96937,0.5 z m 265.84181,-4.25 c -1.24387,-1.58606 -1.2085,-1.62143 0.37756,-0.37756 0.9625,0.75485 1.75,1.54235 1.75,1.75 0,0.82304 -0.82119,0.29331 -2.12756,-1.37244 z M 1030,547.62244 c 0,-0.20765 0.7875,-0.99515 1.75,-1.75 1.5861,-1.24387 1.6214,-1.2085 0.3776,0.37756 -1.3064,1.66575 -2.1276,2.19548 -2.1276,1.37244 z M 947,544 c -1.1749,-1.65 -1.91119,-3 -1.63619,-3 0.275,0 1.46129,1.35 2.63619,3 1.1749,1.65 1.91119,3 1.63619,3 -0.275,0 -1.46129,-1.35 -2.63619,-3 z m -171.23209,1.27527 c 1.79735,-0.22256 4.49735,-0.21797 6,0.0102 1.50265,0.22818 0.0321,0.41027 -3.26791,0.40466 -3.3,-0.006 -4.52944,-0.1923 -2.73209,-0.41486 z m 210.95979,0.003 c 1.77523,-0.22091 4.92523,-0.22454 7,-0.008 2.07476,0.21648 0.6223,0.39722 -3.2277,0.40166 -3.85,0.004 -5.54754,-0.17268 -3.7723,-0.39359 z M 817.03063,544.5 c 0,-0.55 0.43621,-1.675 0.96937,-2.5 0.53316,-0.825 0.96937,-1.05 0.96937,-0.5 0,0.55 -0.43621,1.675 -0.96937,2.5 -0.53316,0.825 -0.96937,1.05 -0.96937,0.5 z m 73.84181,-1.25 c -1.24387,-1.58606 -1.2085,-1.62143 0.37756,-0.37756 1.66575,1.30637 2.19548,2.12756 1.37244,2.12756 -0.20765,0 -0.99515,-0.7875 -1.75,-1.75 z M 788,543.60699 c 0,-0.21616 0.69837,-0.661 1.55194,-0.98855 0.88992,-0.34149 1.29132,-0.17385 0.94098,0.39301 C 789.90566,543.96166 788,544.4169 788,543.60699 Z m -123.25,-2.35287 c 5.6375,-0.17825 14.8625,-0.17825 20.5,0 5.6375,0.17825 1.025,0.32409 -10.25,0.32409 -11.275,0 -15.8875,-0.14584 -10.25,-0.32409 z m 95.83889,-2.33085 c -1.42389,-1.69219 -2.57521,-3.60469 -2.55848,-4.25 0.0167,-0.6453 0.52818,-0.27327 1.13657,0.82673 0.60839,1.1 2.02314,3.0125 3.1439,4.25 1.12076,1.2375 1.77431,2.25 1.45233,2.25 -0.32198,0 -1.75042,-1.38453 -3.17432,-3.07673 z M 792,541.62244 c 0,-0.20765 0.7875,-0.99515 1.75,-1.75 1.58606,-1.24387 1.62143,-1.2085 0.37756,0.37756 C 792.82119,541.91575 792,542.44548 792,541.62244 Z M 915.87244,540.25 c -1.24387,-1.58606 -1.2085,-1.62143 0.37756,-0.37756 0.9625,0.75485 1.75,1.54235 1.75,1.75 0,0.82304 -0.82119,0.29331 -2.12756,-1.37244 z m -28,-1 c -1.24387,-1.58606 -1.2085,-1.62143 0.37756,-0.37756 1.66575,1.30637 2.19548,2.12756 1.37244,2.12756 -0.20765,0 -0.99515,-0.7875 -1.75,-1.75 z m 148.82296,-1.73744 c 0.9147,-1.9181 1.8406,-3.30991 2.0576,-3.09293 0.4574,0.45746 -2.5782,6.58037 -3.2625,6.58037 -0.252,0 0.2902,-1.56935 1.2049,-3.48744 z m -300.61645,0.90411 c 0.048,-1.16495 0.28494,-1.4019 0.60416,-0.60417 0.28887,0.72187 0.25335,1.58438 -0.0789,1.91667 -0.33229,0.33229 -0.56864,-0.25834 -0.52522,-1.3125 z M 969.40499,537.75 967.5,535.5 l 2.25,1.90499 c 2.11444,1.79022 2.70524,2.59501 1.90499,2.59501 -0.18976,0 -1.20226,-1.0125 -2.25,-2.25 z M 633.03063,537.5 c 0,-0.55 0.43621,-1.675 0.96937,-2.5 0.53316,-0.825 0.96937,-1.05 0.96937,-0.5 0,0.55 -0.43621,1.675 -0.96937,2.5 -0.53316,0.825 -0.96937,1.05 -0.96937,0.5 z M 912,535 c -1.1749,-1.65 -1.91119,-3 -1.63619,-3 0.275,0 1.46129,1.35 2.63619,3 1.1749,1.65 1.91119,3 1.63619,3 -0.275,0 -1.46129,-1.35 -2.63619,-3 z m -176.84211,-1 c 0,-1.375 0.22698,-1.9375 0.50439,-1.25 0.27741,0.6875 0.27741,1.8125 0,2.5 -0.27741,0.6875 -0.50439,0.125 -0.50439,-1.25 z m 85,0 c 0,-1.375 0.22698,-1.9375 0.50439,-1.25 0.27741,0.6875 0.27741,1.8125 0,2.5 -0.27741,0.6875 -0.50439,0.125 -0.50439,-1.25 z m 62.71455,-1.75 c -1.24387,-1.58606 -1.2085,-1.62143 0.37756,-0.37756 0.9625,0.75485 1.75,1.54235 1.75,1.75 0,0.82304 -0.82119,0.29331 -2.12756,-1.37244 z M 798.32007,526 c 0,-3.575 0.1815,-5.0375 0.40333,-3.25 0.22182,1.7875 0.22182,4.7125 0,6.5 -0.22183,1.7875 -0.40333,0.325 -0.40333,-3.25 z m 141.75888,3.41667 c 0.048,-1.16495 0.28494,-1.4019 0.60416,-0.60417 0.28887,0.72187 0.25335,1.58438 -0.0789,1.91667 -0.33229,0.33229 -0.56864,-0.25834 -0.52522,-1.3125 z M 756,494 v -35 h -10.48704 -10.48704 l -0.27635,34.75 -0.27634,34.75 -0.23662,-35.25 L 734,458 h 11.5 11.5 v 35.5 c 0,19.525 -0.225,35.5 -0.5,35.5 -0.275,0 -0.5,-15.75 -0.5,-35 z m 65,-0.46826 v -34.46827 l -11.75,-0.3167 -11.75,-0.3167 12.25,-0.21504 L 822,458 v 35 c 0,19.25 -0.225,35 -0.5,35 -0.275,0 -0.5,-15.51072 -0.5,-34.46826 z M 877.87244,525.25 c -1.24387,-1.58606 -1.2085,-1.62143 0.37756,-0.37756 0.9625,0.75485 1.75,1.54235 1.75,1.75 0,0.82304 -0.82119,0.29331 -2.12756,-1.37244 z M 904,524 c -1.1749,-1.65 -1.91119,-3 -1.63619,-3 0.275,0 1.46129,1.35 2.63619,3 1.1749,1.65 1.91119,3 1.63619,3 -0.275,0 -1.46129,-1.35 -2.63619,-3 z m 137.0789,0.41667 c 0.048,-1.16495 0.285,-1.4019 0.6042,-0.60417 0.2889,0.72187 0.2534,1.58438 -0.079,1.91667 -0.3323,0.33229 -0.5687,-0.25834 -0.5253,-1.3125 z M 667.75,524.25749 c 3.9875,-0.18981 10.5125,-0.18981 14.5,0 3.9875,0.18982 0.725,0.34512 -7.25,0.34512 -7.975,0 -11.2375,-0.1553 -7.25,-0.34512 z m 351.3289,-0.84082 c 0.048,-1.16495 0.285,-1.4019 0.6042,-0.60417 0.2889,0.72187 0.2534,1.58438 -0.079,1.91667 -0.3323,0.33229 -0.5687,-0.25834 -0.5253,-1.3125 z M 938.15789,520 c 0,-1.375 0.22698,-1.9375 0.50439,-1.25 0.27741,0.6875 0.27741,1.8125 0,2.5 -0.27741,0.6875 -0.50439,0.125 -0.50439,-1.25 z m 82.00001,-1 c 0,-1.375 0.227,-1.9375 0.5044,-1.25 0.2774,0.6875 0.2774,1.8125 0,2.5 -0.2774,0.6875 -0.5044,0.125 -0.5044,-1.25 z m -120.28546,-0.75 c -1.24387,-1.58606 -1.2085,-1.62143 0.37756,-0.37756 0.9625,0.75485 1.75,1.54235 1.75,1.75 0,0.82304 -0.82119,0.29331 -2.12756,-1.37244 z m 142.37976,-1.75 c 0.011,-2.2 0.2159,-2.98225 0.4551,-1.73834 0.2392,1.24391 0.2301,3.04391 -0.02,4 -0.2503,0.95609 -0.446,-0.0617 -0.4349,-2.26166 z m -354.17325,1.83179 c -0.0434,-0.64252 -0.33793,-1.99252 -0.65446,-3 -0.54705,-1.74122 -0.51883,-1.7434 0.57078,-0.0441 0.63045,0.98322 0.92496,2.33322 0.65445,3 -0.35498,0.87499 -0.51379,0.88727 -0.57077,0.0441 z M 959.25218,510.5 c 0.0111,-2.2 0.21589,-2.98225 0.45508,-1.73834 0.23919,1.24391 0.23011,3.04391 -0.0202,4 -0.25029,0.95609 -0.446,-0.0617 -0.4349,-2.26166 z m -64.37974,0.75 c -1.24387,-1.58606 -1.2085,-1.62143 0.37756,-0.37756 0.9625,0.75485 1.75,1.54235 1.75,1.75 0,0.82304 -0.82119,0.29331 -2.12756,-1.37244 z M 798.27236,508 c 0,-2.475 0.19502,-3.4875 0.43337,-2.25 0.23836,1.2375 0.23836,3.2625 0,4.5 -0.23835,1.2375 -0.43337,0.225 -0.43337,-2.25 z m 244.01364,-0.5 c 0.01,-2.75 0.2017,-3.75631 0.4316,-2.23625 0.2298,1.52006 0.2237,3.77006 -0.014,5 -0.2373,1.22994 -0.4254,-0.0138 -0.4179,-2.76375 z m -150.30606,-0.0242 c -0.69572,-0.83829 -1.07128,-1.71782 -0.83459,-1.95452 0.2367,-0.23669 0.97964,0.44918 1.65098,1.52417 1.45181,2.32472 0.96763,2.57996 -0.81639,0.43035 z m 128.09896,-4.05916 c 0.048,-1.16495 0.285,-1.4019 0.6042,-0.60417 0.2889,0.72187 0.2534,1.58438 -0.079,1.91667 -0.3323,0.33229 -0.5687,-0.25834 -0.5253,-1.3125 z M 960.15789,502 c 0,-1.375 0.22698,-1.9375 0.50439,-1.25 0.27741,0.6875 0.27741,1.8125 0,2.5 -0.27741,0.6875 -0.50439,0.125 -0.50439,-1.25 z M 863,481.03498 V 459.06997 L 852.75,458.74588 842.5,458.42179 853.25,458.2109 864,458 v 22.5 c 0,12.375 -0.225,22.5 -0.5,22.5 -0.275,0 -0.5,-9.88426 -0.5,-21.96502 z m 3,21.58746 c 0,-0.20765 0.7875,-0.99515 1.75,-1.75 1.58606,-1.24387 1.62143,-1.2085 0.37756,0.37756 C 866.82119,502.91575 866,503.44548 866,502.62244 Z M 938.15789,501 c 0,-1.375 0.22698,-1.9375 0.50439,-1.25 0.27741,0.6875 0.27741,1.8125 0,2.5 -0.27741,0.6875 -0.50439,0.125 -0.50439,-1.25 z m 102.92101,-2.58333 c 0.048,-1.16495 0.285,-1.4019 0.6042,-0.60417 0.2889,0.72187 0.2534,1.58438 -0.079,1.91667 -0.3323,0.33229 -0.5687,-0.25834 -0.5253,-1.3125 z M 798.39994,484.5 c 10e-4,-8.25 0.15629,-11.49193 0.34419,-7.20429 0.1879,4.28763 0.18676,11.03763 -0.003,15 -0.1893,3.96236 -0.34304,0.45429 -0.34164,-7.79571 z M 895.5,497 c 0.99549,-1.1 2.03498,-2 2.30998,-2 0.275,0 -0.31449,0.9 -1.30998,2 -0.99549,1.1 -2.03498,2 -2.30998,2 -0.275,0 0.31449,-0.9 1.30998,-2 z m -25.5,0.68709 c 0,-0.1721 1.4625,-1.6346 3.25,-3.25 l 3.25,-2.93709 -2.93709,3.25 C 870.82513,497.77946 870,498.45965 870,497.68709 Z m 69.07895,-2.27042 c 0.048,-1.16495 0.28494,-1.4019 0.60416,-0.60417 0.28887,0.72187 0.25335,1.58438 -0.0789,1.91667 -0.33229,0.33229 -0.56864,-0.25834 -0.52522,-1.3125 z m 77.61645,-1.92923 C 1015.7807,491.56935 1015.2385,490 1015.4905,490 c 0.6843,0 3.7199,6.12291 3.2625,6.58037 -0.217,0.21698 -1.1429,-1.17483 -2.0576,-3.09293 z M 900,491.5 c 1.29175,-1.375 2.57363,-2.5 2.84863,-2.5 0.275,0 -0.55688,1.125 -1.84863,2.5 -1.29175,1.375 -2.57363,2.5 -2.84863,2.5 -0.275,0 0.55688,-1.125 1.84863,-2.5 z m 63,1.55902 c 0,-0.51754 0.44485,-1.21592 0.98855,-1.55194 0.56686,-0.35034 0.7345,0.0511 0.39301,0.94098 C 963.71677,494.18048 963,494.49745 963,493.05902 Z M 940.0856,492 c -0.0302,-0.825 0.38124,-2.175 0.9144,-3 1.18132,-1.82797 1.18132,-0.24909 0,2.5 -0.56668,1.31874 -0.87815,1.48906 -0.9144,0.5 z M 878,488.5 c 1.29175,-1.375 2.57363,-2.5 2.84863,-2.5 0.275,0 -0.55688,1.125 -1.84863,2.5 -1.29175,1.375 -2.57363,2.5 -2.84863,2.5 -0.275,0 0.55688,-1.125 1.84863,-2.5 z m 159.6235,-1.03866 c -0.9649,-2.51469 -0.6803,-3.16355 0.4986,-1.13634 0.5837,1.00375 0.8506,2.03566 0.5931,2.29313 -0.2575,0.25747 -0.7487,-0.26309 -1.0917,-1.15679 z M 969,484.5 c 1.29175,-1.375 2.57363,-2.5 2.84863,-2.5 0.275,0 -0.55688,1.125 -1.84863,2.5 -1.29175,1.375 -2.57363,2.5 -2.84863,2.5 -0.275,0 0.55688,-1.125 1.84863,-2.5 z m -62,-1 c 1.29175,-1.375 2.57363,-2.5 2.84863,-2.5 0.275,0 -0.55688,1.125 -1.84863,2.5 -1.29175,1.375 -2.57363,2.5 -2.84863,2.5 -0.275,0 0.55688,-1.125 1.84863,-2.5 z m -23,-2 c 1.86578,-1.925 3.61733,-3.5 3.89233,-3.5 0.275,0 -1.02655,1.575 -2.89233,3.5 -1.86578,1.925 -3.61733,3.5 -3.89233,3.5 -0.275,0 1.02655,-1.575 2.89233,-3.5 z m 123.8724,0.75 c -1.2438,-1.58606 -1.2085,-1.62143 0.3776,-0.37756 1.6657,1.30637 2.1955,2.12756 1.3724,2.12756 -0.2076,0 -0.9951,-0.7875 -1.75,-1.75 z M 1035,482 c -0.5887,-1.1 -0.8454,-2 -0.5704,-2 0.275,0 0.9817,0.9 1.5704,2 0.5887,1.1 0.8454,2 0.5704,2 -0.275,0 -0.9817,-0.9 -1.5704,-2 z m -89.02981,-2.94431 c 0.57231,-1.06937 1.53482,-2.24977 2.13891,-2.62312 0.6041,-0.37335 0.32492,0.50159 -0.62038,1.94431 -2.00162,3.05486 -3.03812,3.51819 -1.51853,0.67881 z M 1003,479.5 c -1.375,-0.78602 -2.0235,-1.44508 -1.4411,-1.46456 0.5823,-0.0195 1.9323,0.62525 3,1.43276 2.4689,1.86744 1.6804,1.88353 -1.5589,0.0318 z m -91,-2 c 1.29175,-1.375 2.57363,-2.5 2.84863,-2.5 0.275,0 -0.55688,1.125 -1.84863,2.5 -1.29175,1.375 -2.57363,2.5 -2.84863,2.5 -0.275,0 0.55688,-1.125 1.84863,-2.5 z m 138.2056,-8.75 0.2057,-9.25 0.3329,8.72416 0.3329,8.72416 15.2115,0.3039 15.2114,0.3039 -15.75,0.22194 L 1050,478 Z m 62.0901,8.50587 c 4.2876,-0.1879 11.0376,-0.18676 15,0.003 3.9624,0.1893 0.4543,0.34304 -7.7957,0.34164 -8.25,-10e-4 -11.4919,-0.15629 -7.2043,-0.34419 z M 888,476.68709 c 0,-0.1721 1.4625,-1.6346 3.25,-3.25 l 3.25,-2.93709 -2.93709,3.25 C 888.82513,476.77946 888,477.45965 888,476.68709 Z m 97.76166,-0.39435 c 1.24391,-0.23919 3.04391,-0.23011 4,0.0202 0.95609,0.25029 -0.0617,0.446 -2.26166,0.4349 -2.2,-0.0111 -2.98225,-0.21589 -1.73834,-0.45508 z m 6.98834,0.045 c 0.6875,-0.27741 1.8125,-0.27741 2.5,0 0.6875,0.27741 0.125,0.50439 -1.25,0.50439 -1.375,0 -1.9375,-0.22698 -1.25,-0.50439 z M 952,471.5 c 1.86578,-1.925 3.61733,-3.5 3.89233,-3.5 0.275,0 -1.02655,1.575 -2.89233,3.5 -1.86578,1.925 -3.61733,3.5 -3.89233,3.5 -0.275,0 1.02655,-1.575 2.89233,-3.5 z m 74.4529,-0.75 -3.9529,-4.25 4.25,3.95295 c 2.3375,2.17412 4.25,4.08662 4.25,4.25 0,0.75658 -0.8709,-4.9e-4 -4.5471,-3.95295 z M 918,470.5 c 1.29175,-1.375 2.57363,-2.5 2.84863,-2.5 0.275,0 -0.55688,1.125 -1.84863,2.5 -1.29175,1.375 -2.57363,2.5 -2.84863,2.5 -0.275,0 0.55688,-1.125 1.84863,-2.5 z m -22,-3 c 1.29175,-1.375 2.57363,-2.5 2.84863,-2.5 0.275,0 -0.55688,1.125 -1.84863,2.5 -1.29175,1.375 -2.57363,2.5 -2.84863,2.5 -0.275,0 0.55688,-1.125 1.84863,-2.5 z m -97.92105,-2.08333 c 0.048,-1.16495 0.28494,-1.4019 0.60416,-0.60417 0.28887,0.72187 0.25335,1.58438 -0.0789,1.91667 -0.33229,0.33229 -0.56864,-0.25834 -0.52522,-1.3125 z M 924.51965,462.75 c 2.14713,-2.6125 4.06422,-4.75 4.26021,-4.75 0.71572,0 -3.62826,5.55587 -5.86404,7.5 -1.26502,1.1 -0.5433,-0.1375 1.60383,-2.75 z M 1015,463 c -1.925,-1.05389 -3.1402,-1.93503 -2.7003,-1.95808 1.0597,-0.0555 6.7003,2.87723 6.7003,3.48376 0,0.65451 -0.058,0.63219 -4,-1.52568 z m -50.55887,-0.44483 C 965.50875,461.69982 966.82125,461 967.3578,461 c 1.27054,0 0.70323,0.4619 -2.3578,1.91971 -2.35727,1.12265 -2.38918,1.10183 -0.55887,-0.36454 z M 902,460.5 c 1.29175,-1.375 2.57363,-2.5 2.84863,-2.5 0.275,0 -0.55688,1.125 -1.84863,2.5 -1.29175,1.375 -2.57363,2.5 -2.84863,2.5 -0.275,0 0.55688,-1.125 1.84863,-2.5 z m -213,-0.47254 c 0,-0.57019 -5.89545,-1.09964 -14.25,-1.27974 l -14.25,-0.3072 14.75,-0.22026 c 12.54234,-0.18729 14.75,0.004 14.75,1.27974 0,0.825 -0.225,1.5 -0.5,1.5 -0.275,0 -0.5,-0.43764 -0.5,-0.97254 z M 970,460 c 0.825,-0.53316 2.175,-0.94464 3,-0.9144 0.98906,0.0362 0.81874,0.34772 -0.5,0.9144 -2.74909,1.18132 -4.32797,1.18132 -2.5,0 z m 5.8125,-1.68311 c 0.72187,-0.28887 1.58438,-0.25335 1.91667,0.0789 0.33229,0.33229 -0.25834,0.56864 -1.3125,0.52522 -1.16495,-0.048 -1.4019,-0.28494 -0.60417,-0.60416 z m 27,0 c 0.7219,-0.28887 1.5844,-0.25335 1.9167,0.0789 0.3323,0.33229 -0.2584,0.56864 -1.3125,0.52522 -1.165,-0.048 -1.4019,-0.28494 -0.6042,-0.60416 z m 67.9375,-0.0658 c 11.6875,-0.15998 30.8125,-0.15998 42.5,0 11.6875,0.15998 2.125,0.29087 -21.25,0.29087 -23.375,0 -32.9375,-0.13089 -21.25,-0.29087 z m 86.5,0.01 c 3.1625,-0.19845 8.3375,-0.19845 11.5,0 3.1625,0.19845 0.575,0.36082 -5.75,0.36082 -6.325,0 -8.9125,-0.16237 -5.75,-0.36082 z m -175.98097,-0.954 c 0.97297,-0.25354 2.32297,-0.23687 3,0.0371 0.67703,0.27393 -0.11903,0.48137 -1.76903,0.46099 -1.65,-0.0204 -2.20394,-0.2445 -1.23097,-0.49804 z m 15,0 c 0.97297,-0.25354 2.32297,-0.23687 3,0.0371 0.67703,0.27393 -0.11903,0.48137 -1.76903,0.46099 -1.65,-0.0204 -2.20394,-0.2445 -1.23097,-0.49804 z"
         id="path2" /></g></g></svg>
